<svg xmlns="http://www.w3.org/2000/svg" width="896" height="1216" preserveAspectRatio="none" style="display:block" viewBox="0 0 1509 2048"><defs><linearGradient id="a" x1="754.811" x2="753.186" y1="2049.24" y2="1502.76" gradientUnits="userSpaceOnUse"><stop class="stop0" offset="0" stop-color="#250202"/><stop class="stop1" offset="1" stop-color="#750508"/></linearGradient></defs><path fill="#7a0c1e" d="M0 0h1509v2048H0z"/><path fill="url(#a)" d="M0 1504.03c.774 1.19 2.65 4.2 2.718 5.53 1.556 30.53-.346 61.48.595 92.02 15.49 20.87 33.67 39.02 49.065 60.13 14.876 20.39 31.146 39.64 45.32 60.62 13.704 16.74 67.045 77.13 84.866 82.18-1.381-2.97-3.651-6.88-3.486-9.96 3.065-1.15 10.333 1.77 13.412 3l-1.224.96c-4.119-1.17-8.109-2.39-12.096-3.97 5.361 9.51 10.525 15.45 21.33 18.68 1.472 1.68 5.198 4.29 5.008 6.72-.099 1.26-.635 2.44-1.059 3.61-.321.9-.617 1.8-.923 2.69-6.999 5.46-15.03 8.8-23.15 12.25-5.191 28.44-12.934 45.07-31.94 66.98 30.564-12.07 73.666-26.81 87.679-59.33q.457-1.065.892-2.13c4.281 14.98 8.504 24.14 20.93 34.07-.7-10.36-3.559-19.45-2.49-30.13 1.76-17.59 27.298-68.51 38.357-83.52 4.503-6.11 10.163-11.24 16.006-16.04 21.874-17.98 58.376-40.03 87.471-36.9 5.093.55 9.898 2.29 13.042 6.53 4.487 6.06 3.204 11.91 2.169 18.8 5.925-2.13 9.545-4.26 13.905-8.69 9.621 12.94 20.855 22.99 36.107 28.79 17.575 6.69 39.477 7.32 56.77-.6 21.913-10.05 30.327-27.53 38.179-48.79.446-.17.874-.39 1.337-.49 7.509-1.68 26.68 9.89 33.812 13.33.576.54 1.523 1.17 1.642 2.06.077.57-.601 1.25-.855 1.6-10.609.32-17.326 3.64-26.163 9.3 19.068-5.05 30.192-3.44 47.383 6.67a49.3 49.3 0 0 1 6.691 4.69l-.217.77-7.153-1.04-1.245 1.78c18.684 9.15 37.513 17.81 57.962 22.21 35.766 7.71 135.642 6.75 170.794-1.71 20.38-4.91 38.555-15.73 58.476-21.08.289-.08.58-.15.87-.22l-1.541-1.9-15.301 3.66c4.228-3.01 8.727-5.7 13.174-8.37 14.098-8.46 23.883-10.43 39.81-6.46-.057-.4-.12-.81-.169-1.22-.017-.14-.013-.28-.029-.42-.098-.86-.613-1.99-1.389-2.43-.143-.08-.313-.11-.449-.21-1.393-.94-2.218-1.7-3.823-2.21-1.786-.57-4.207-1.01-5.802-2-.911-.56-1.697-.73-2.782-.69-.686.03-1.247.03-1.924-.12-1.143-.27-1.868-.41-3.054-.45-1.601-.04-1.948-.25-3.361-1.06 12.98-8.17 27.567-14.2 43.07-14.89 6.514-23.96 13.536-46.2 36.459-59.35 10.694-6.14 23.324-8.72 35.384-5.4 11.08 3.05 20.04 10.65 25.58 20.65 7.4 13.34 8.63 29.41 4.44 43.97-4.36 15.14-14.68 28.84-28.63 36.37-2.69 1.45-5.54 2.58-8.39 3.69l-.15.86-.06 3.01c.55.07 1.11.15 1.67.19 17.16 1.19 34.79-5.1 47.76-16.31 8.7-7.53 8.63-13.21 10.12-23.57.76-5.38 10.88-11.95 15.15-15.36-6.23-2.18-12.66-3.45-19.1-4.83 5.17-1.65 10.54-3.01 15.93-3.67 26.4-3.22 54.03 8.85 74.51 24.77-25.68-46.79-22.17-45.9-19.9-97.77 3.54 6.91 5.74 13.67 7.47 21.23 6.75-8.34 13.42-12.27 23.81-14.55 2.59.37 5.12.71 7.67 1.32 2.98 3.83 5.36 7.73 7.71 11.97l-1.17 2.11c-5.82-.4-12.17-1.34-16.9 2.9-5.44 4.87-6.77 14.14-6.93 21.08-.61 26.47 22.41 64.93 40.61 83.62 18.05 18.53 39.42 27.25 63.79 34.19 2.07 7.52 5.15 14.36 12.42 18.29 2.92 1.57 6.66 2.78 9.96 2.74 6.59-1.58 34.08-2.19 38.38-6.53 3.3-3.33 20.1-19.31 24.21-23.54 13.81-14.22 30.17-29.23 42.9-44.09 30.69-35.81 56.48-75.83 84.75-113.54 3.55-4.74 17.78-18.71 18.12-21.44 3.06-24.71-.66-53.19.76-78.33.24-4.2.86-4.11 3.45-6.33V2048H0z"/><path fill="#a16e2c" d="M1167.89 1711.65c-25.68-46.79-22.17-45.9-19.9-97.77 3.54 6.91 5.74 13.67 7.47 21.23 6.75-8.34 13.42-12.27 23.81-14.55 2.59.37 5.12.71 7.67 1.32 2.98 3.83 5.36 7.73 7.71 11.97l-1.17 2.11c-5.82-.4-12.17-1.34-16.9 2.9-5.44 4.87-6.77 14.14-6.93 21.08-.61 26.47 22.41 64.93 40.61 83.62 18.05 18.53 39.42 27.25 63.79 34.19 2.07 7.52 5.15 14.36 12.42 18.29 2.92 1.57 6.66 2.78 9.96 2.74 12.52 1.49 22.13-.3 33.94-4.57-6.34 10.56-12.54 15.38-24.1 19.67-3.39 2.35-5.18 2.64-9.33 2.56-.67-.02-1.6.02-2.17.43-.25.19-.43.6-.44.9-.03.53.1 1.11.29 1.61.57.4 1.15.17 1.84.12 2.35-.15 4.58.61 6.3 2.22 1.58 1.46 2.41 2.94 3.44 4.81 7.11 4.89 14.01 8.79 22.33 11.23 5.28 27.97 12.1 44.78 30.63 66.67-24.23-8.19-72.84-29.52-84.45-53.28-.18-.39-.36-.78-.54-1.16-.16-1.45-.91-2.67-1.53-3.97l-.96.74-.09 1.08c-1.25 13.73-12.2 23.31-22.07 31.57 4.56-12.3 6.92-25.43 4.03-38.39-3.47-15.5-31.11-68.23-41.72-80.45-9.25-10.67-22.67-19.96-34.63-27.4-18.47-11.49-46.95-26.44-69.06-20.66-4.52 1.18-8.68 3.42-10.89 7.73-3.38 6.61-2.33 10.8-.41 17.53-5.8-3.03-10.31-5.65-14.66-10.65-9.63 15.57-22.79 26.85-40.57 31.99-18.15 5.25-39.72 3.95-56.302-5.52-17.088-9.75-28.186-26.09-33.272-44.82 4.969 4 9.046 9.3 13.484 13.9 16.583 17.19 32.469 25.38 56.33 27.76.55.07 1.11.15 1.67.19 17.16 1.19 34.79-5.1 47.76-16.31 8.7-7.53 8.63-13.21 10.12-23.57.76-5.38 10.88-11.95 15.15-15.36-6.23-2.18-12.66-3.45-19.1-4.83 5.17-1.65 10.54-3.01 15.93-3.67 26.4-3.22 54.03 8.85 74.51 24.77"/><path fill="#7a0c1e" d="M1250.86 1802.3c22.37 8.01 31.08 12.14 55.41 11.58-3.39 2.35-5.18 2.64-9.33 2.56-.67-.02-1.6.02-2.17.43-.25.19-.43.6-.44.9-.03.53.1 1.11.29 1.61.57.4 1.15.17 1.84.12 2.35-.15 4.58.61 6.3 2.22 1.58 1.46 2.41 2.94 3.44 4.81-.63-.39-1.25-.77-1.87-1.18-6.52-4.28-12.05-4.01-19.54-5.53-13.79-2.8-23.05-8.92-33.93-17.52"/><path fill="#944a1d" d="M612.685 1746.2c-1.07-.33-2.14-.67-3.224-.96-1.073-.28-4.033-.71-4.748-1.75l.088-.15c2.7-.86 6.553.07 9.129 1.08zm286.561-2.7c1.143-.46 2.825-1 4.001-.35.161.09.161.19.205.34-.373 1.02-1.77 1.45-2.665 1.91z"/><path fill="#a16e2c" d="M468.064 1769.69c53.174 12.72 109.516 9.15 163.857 9.49 23.781.15 51.808-1.24 74.593 5.88 14.966 4.67 27.016 14.04 35.132 27.48 10.99 18.21 12.639 41.35 7.566 61.69-3.561 14.28-10.769 27.18-23.699 34.87-9.855 5.85-22.591 7.44-33.656 4.42-8.005-2.18-15.379-7.8-19.362-15.1-3.17-5.81-4.222-12.8-2.324-19.2 1.533-5.16 5.471-10.76 10.418-13.19 3.831-1.88 10.919-3.84 14.906-2.11.393.17.772.37 1.158.55-3.085 4.85-18.581 1.11-14.723 18.96 1.042 4.82 4.648 9.21 8.915 11.6 5.395 3.02 11.903 3 17.701 1.22 8.376-2.58 15.629-8.9 19.658-16.64 7.322-14.05 7.945-31.31 3.014-46.25a56.43 56.43 0 0 0-28.448-33.13c-15.605-7.7-34.937-7.55-51.214-1.98-13.985 4.79-27.222 15.45-34.783 28.14 5.298 13.51 12.675 29.22 6.237 43.67-2.387 5.36-6.38 9.99-12.073 11.86-2.594.85-4.073 1.21-6.668.47 1.078-2.15 2.856-4.24 3.711-6.4 2.779-6.99 1.673-17.91-.625-24.86-5.725-17.29-23.314-30.25-38.979-37.94-9.734-4.78-21.391-9.07-32.182-10.75-1.229-.1-3.114 0-4.241-.62-.178-.1-.465-.19-.489-.43-.025-.25.043-.41.238-.56 2.661-2.1 12.543-.56 15.623.04 22.251 1.4 40.041 6.75 58.93 18.82 8.618-10.66 15.887-17.01 28.51-22.61-36.655 0-87.621 2.81-122.158-6.79-16.07-4.47-30.466-11.74-44.543-20.6"/><path fill="#7a0c1e" d="M536.194 1802.44c-1.229-.1-3.114 0-4.241-.62-.178-.1-.465-.19-.489-.43-.025-.25.043-.41.238-.56 2.661-2.1 12.543-.56 15.623.04-3.944.18-7.574-.33-11.131 1.57"/><path fill="#a16e2c" d="M819.996 1863.01c2 .63 4.1 1.24 6.011 2.11 5.382 2.44 9.693 7.48 11.545 13.07 2.325 7.02.904 15.49-2.74 21.86-4.025 7.05-11.741 11.77-19.49 13.67-10.754 2.63-22.955.97-32.389-4.88-13.115-8.14-20.465-23.26-23.77-37.87-4.426-19.56-2.702-41.31 8.422-58.43 8.593-13.22 21.283-22.2 36.274-26.83 24.102-7.44 55.447-6.63 80.757-6.74 46.924-.19 108.815 2.39 153.504-6.96-57.074 32.12-99.846 23.31-162.002 24.23 12.105 5.92 18.743 13.59 26.704 24.16 19.407-14.78 38.075-18 61.858-19.85l6.637 1.53c-24.246 5.57-51.522 18.32-65.013 40.26-4.788 7.78-8.408 17.67-6.289 26.9.866 3.76 4.883 10.55 3.523 13.92-3.728.26-8.548-3.27-11.246-5.68-5.634-5.03-8.63-12.92-8.743-20.37-.152-9.98 4.09-20.48 9.492-28.72-6.493-13.71-17.596-24.07-31.913-29.24-17.043-6.15-39.523-6.86-56.06 1.22-13.241 6.46-22.924 18.13-27.61 32.02-4.828 14.31-5.172 30.94 1.739 44.65 4.504 8.93 12.091 16.65 21.734 19.82 5.207 1.71 11.12 2.24 16.178-.23 4.864-2.38 8.058-7.31 9.506-12.4 1.163-4.09 1.535-7.56-.51-11.43-2.053-3.89-5.041-5.69-8.726-7.72a75 75 0 0 1 2.617-2.07m327.844-126.77c2.39-.19 4.78-.31 7.17-.34 19.07-.12 37.28 8.63 50.7 21.89 9.73 9.61 18.58 22.23 18.45 36.46-.1 10.82-4.96 19.66-12.45 27.14.3-5.02 1.11-10.99.09-15.92a22.98 22.98 0 0 0-9.5-14.13c-2.24.67-1.61 1.97-1.92 4.16-1.27 8.83-3.78 15.73-10.98 21.52-5.17 4.16-11.68 6.28-18.32 5.38-11.41-1.53-18.96-11.14-25.49-19.64 20.08-18.79 25.98-6.21 42.24-15.55 2.86-1.64 5.15-3.87 5.82-7.21.92-4.52-1.72-9.3-4.08-12.99-5.68-8.85-12.77-13.75-23.07-15.85-9.37-1.91-18.75-.34-26.69 5.06-14.56 9.92-22.42 30.4-25.28 47.07-3.02 17.56-1.91 37.16 8.8 52.08 8.02 11.17 18.08 14.66 31.15 16.72 5.16.06 10-.74 14.68-2.98 6.33-3.03 12.41-8.75 14.52-15.55 1.15-3.68.81-7.61-1.14-10.96-2.16-3.69-6.91-7.55-11.1-8.58-1.86-.46-1.38-.21-2.38-1.56 1.54-1.04 3.37-.8 5.15-.7 5.38.28 10.8 3.23 14.2 7.38 3.77 4.59 4.6 10.51 4.14 16.26-.77 9.68-5.02 18.52-12.57 24.72-9.03 7.42-21.52 10.56-33.04 9.2-14.16-1.66-27.08-9.68-35.66-20.94-16.12-21.16-16.07-48.59-12.75-73.76-1.15 1.65-2.32 3.29-3.5 4.92-9.78 13.51-22.72 25.83-39.89 28.35-6.27.92-13.34.36-18.48-3.69-2.31-1.82-4.6-4.78-4.95-7.75 9.32.6 17.17.93 25.6-3.66 15.08-8.22 21.18-23.37 25.87-38.91 1.28-.04 2.55-.12 3.83-.17 18.39-.7 29.24-30.78 60.83-37.47m-802.673.03c21.051-2.69 37.866 5.59 52.024 20.64 4.79 5.09 10.006 11.43 16.412 14.51 3.449 1.66 7.982 1.73 11.759 2.05 3.894 14.22 9.801 26.97 22.049 35.91 9.632 7.04 19.023 8.46 30.645 6.65-2.13 3.04-4.256 6.31-7.21 8.62-4.695 3.67-10.972 4.64-16.743 3.74-17.933-2.78-32.703-18.91-42.963-32.7 2.011 19.19 3.001 37.75-4.11 56.14-5.755 14.89-16.173 27.84-31.015 34.33a46.16 46.16 0 0 1-35.65.58c-9.505-3.76-17.473-10.67-21.384-20.24-3.085-7.55-3.742-17.69-.34-25.25 1.519-3.37 4.445-6.55 8.058-7.67 2.227-.7 7.837-1.88 9.801-.74-3.804 2.43-7.78 4.41-9.783 8.66-2.047 4.34-1.896 9.02-.187 13.46 2.992 7.77 8.368 12.04 15.697 15.5.824.23 1.647.45 2.482.63 10.419 2.17 21.71.91 30.726-5.01 10.571-6.94 15.987-19.16 18.436-31.18 4.533-22.23-.316-48.28-13.015-67.15-5.839-8.68-13.834-15.69-24.392-17.54-9.372-1.65-19.185.97-26.866 6.48-6.641 4.77-12.603 12.17-13.654 20.49-.393 3.11.243 6.37 2.416 8.73 6.378 6.94 23.876 4.79 32.44 5.09 5.242 3.15 10.178 6.99 15.161 10.54-3.237 4.58-6.481 9.18-10.917 12.7-6.429 5.09-13.88 7.65-22.13 6.57-7.017-.92-13.615-4.33-17.853-10.1-5.552-7.57-5.453-14.67-4.221-23.56l-.646.46c-17.477 12.66-11.782 12.84-14.656 30.76l-.915.42c-5.041-5.92-6.873-13.28-8.36-20.76-2.022-10.16 2.139-20.83 7.875-29.07a79.74 79.74 0 0 1 51.029-32.69"/><path fill="#c9a227" d="M754.091 1871.63c8.731 18.52 15.759 36.13 21.649 55.76-8.087 18.63-13.283 38.36-20.759 57.24l-21.944-58.52c6.645-18.12 16.518-35.79 21.054-54.48"/><path fill="#a16e2c" d="m674.623 1809.91.368-1.04c.081-.23.153-.47.237-.7.219-.61.504-1.15 1.042-1.52.111-.01.195-.05.277.03 1.104 1.08.504 7.3.514 8.9.69 3.21 1.84 6.35 3.963 8.91 5.795 6.97 13.568 8.69 22.035 9.74l.819.11c-4.465 5.98-9.205 13.38-15.325 17.76-4.086 2.93-8.635 3.61-13.537 2.68-16.348-3.12-28.512-16.87-37.132-30.03 2.836 1.04 5.73 2.24 8.668 2.94 6.464 1.53 14.472.71 19.993-3.15 4.837-3.39 7.162-9.01 8.078-14.63"/><path fill="#7a0c1e" d="m674.623 1809.91.368-1.04c.081-.23.153-.47.237-.7.219-.61.504-1.15 1.042-1.52.111-.01.195-.05.277.03 1.104 1.08.504 7.3.514 8.9q-1.263-2.82-2.438-5.67"/><path fill="#a16e2c" d="M832.578 1808.84c5.487 5.54 5.063 14.99 13.448 18.88 8.394 3.89 17.886-1.14 25.686-4.2l.629-.24c-6.974 12.42-15.591 20.63-28.122 27.36-5.514 2.43-11.061 4.85-17.233 4.41-8.41-.61-17.541-15.84-22.559-21.75.868-.12 1.7-.17 2.577-.17 6.396.03 12.298-1.14 17.446-5.2 6.417-5.07 7.294-11.46 8.128-19.09m173.782-97.46c-2.18-4.21-4.15-8.54-4.28-13.38-.23-8.31 3.38-16.9 9.09-22.84 5.97-6.22 13.17-9.45 21.83-9.44 12.41.01 18.54 5.97 26.53 14.37-7.62-3.36-12.52-8.3-21.53-8.02-8.38.26-16.4 4.27-21.95 10.46-7.27 8.11-8.77 16.5-7.96 26.98z"/><path fill="#c9a227" d="M738.629 1785.78c7.341 2.38 10.825 8.83 15.077 14.82 3.051-3.99 9.072-13.73 14.492-13.94.295-.01.302.1.458.31.236 2.12-4.474 7.35-5.689 9.31-3.829 7.65-6.085 13.85-7.873 22.2-3.769-12.91-9.233-21.55-16.465-32.7"/><path fill="#7a0c1e" d="M1008.09 1709.51c.66 1 1.31 2.02 1.96 3.03.73 1.13 1.55 2.15 2.37 3.22.4.52.6 1.08.64 1.72l-.29.07-.13-.13-.17.53-.25-.99c-.37.14-.73.28-1.1.41-.12.04-.31-.09-.38-.14-.62-.48-1.28-1.64-1.73-2.24-.25-.34-.52-.66-.77-1-.34-.45-.64-.94-.97-1.4-.29-.41-.6-.81-.91-1.21zm-43.41 91.04c2.452-.42 9.253-1.56 11.539-.35.074.04.133.1.199.15.002.17.025.14-.184.3-.941.72-2.23.8-3.344 1.04-.528.11-1.05.25-1.573.39z"/><path fill="#9a5c21" d="M817.379 1865.08c-1.588-.03-2.623-.22-4.119-.75l.723.13c-.42-.26-.835-.52-1.26-.77-.171-.1-.037.07-.148-.1.036-.06.06-.12.108-.16 1.235-1.1 5.798-.49 7.313-.42a75 75 0 0 0-2.617 2.07"/><path fill="#7a0c1e" d="M0 513.372c.456.208.072.095 1.663.122 4.369-6.662-.266-61.052 1.755-65.335 2.521-5.344 30.563-33.011 36.097-41.334 11.704-17.601 26.593-35.949 39.59-52.581 17.417-22.29 33.939-45.525 53.46-65.997 10.99-11.524 25.695-22.59 36.326-35.062 6.403-7.513 12.86-15.88 20.118-22.879 1.502-1.448 1.294-9.23 4.543-12.596 6.057-.75 12.055 11.594 18.317 9.539 18.839-1.654 31.467 6.1 46.152 17.322-29.495-9.749-55.658-20.009-78.639 7.288 22.275-6.003 46.833-9.155 55.205 17.845 11.395 3.704 20.501 6.286 31.744 11.133 30.805 12.688 47.534 41.36 62.657 69.189 7.972 14.668 13.564 33.739 8.428 50.15-4.295 13.722-14.621 12.784-24.281 5.585 2.747 10.445 2.158 12.516 9.986 19.66-4.145 3.796-9.361 4.734-13.56 8.009-27.25 21.254-32.967 69.094-8.622 94.585 11.575 12.119 26.994 20.6 43.117 24.998-8.281 21.767-14.693 43.005-32.031 59.19 5.566-12.215 21.16-32.283 6.918-45.228-3.076-1.266-3.174-1.33-6.477-.565.601 3.393 6.894 5.86 6.076 14.644-2.331 25.049-26.474 41.911-29.228 67.779-1.05 16.052-.578 37.218-.568 53.421l.137 117.732-.296 89.089c-.119 13.787-.433 27.61-.226 41.407.544 36.265 22.348 58.618 54.171 72.548-23.901 12.15-40.554 24.31-50.76 51.16-1.43 3.76-2.679 16.37-2.754 20.61-.385 21.87-.257 43.97-.245 65.86l.078 120.58-.089 77.01c-.024 24.99-2.977 43.16 9.298 65.72 11.409 20.97 28.876 35.19 13.283 59.12 24.829-17.82 11.199-22.98 1.925-45.41 15.972 14.27 24.63 40.92 32.473 60.9-9.981 3.32-17.555 5.66-26.809 11.09-27.002 15.83-40.56 44.82-30.304 75.28 5.944 17.66 16.204 28.17 32.572 37.03-2.868 2.97-5.846 9.49-5.503 13.56l1.294 1.08 1.415-.35c11.183-2.7 18.898 2.87 20.508 14.49 3.87 27.91-13.105 56.02-28.084 78.39-20.062 28.42-43.709 40.59-76.401 48.32l-3.156 10.67c-9.174 8.62-28.014 15.83-40.007 10.37l1.224-.96c-3.079-1.23-10.347-4.15-13.412-3-.165 3.08 2.105 6.99 3.486 9.96-17.821-5.05-71.162-65.44-84.866-82.18-14.174-20.98-30.444-40.23-45.32-60.62-15.396-21.11-33.575-39.26-49.065-60.13-.94-30.54.961-61.49-.595-92.02-.068-1.33-1.944-4.34-2.718-5.53z"/><path fill="#a16e2c" d="M276.152 471.648c.406-1.28.439-1.853 1.491-2.618 1.661.166-.077 8.361-.274 9.475-2.009 15.639-1.364 40.253-1.337 56.521a6126 6126 0 0 0 .643 93.919c.947 76.473.49 153.786.398 230.292l-.009 59.179c-.016 27.689 2.416 55.823-16.579 78.433a65.3 65.3 0 0 1-45.027 23.081c-31.515 2.38-63.691-19.77-66.576-52.796-.829-9.479 3.441-22.916 9.824-30.043 14.467-15.572 44.106-20.193 60.51-5.463 20.439 18.354 1.63 52.522-21.672 34.283-2.216-1.735-3.518-8.25-1.459-10.511 2.718-2.986 6.673-6.337 6.521-10.879.424-8.625-7.477-11.993-15.01-11.954-5.574.03-13.543 4.804-16.897 9.481-4.818 7.301-7.311 18.153-6.031 26.765 3.662 24.627 29.759 37.697 52.763 33.997a51.72 51.72 0 0 0 34.165-21.092c28.523-40.173.609-101.524-32.307-130.819-7.044-6.27-15.914-11.984-23.668-17.495 8.405-1.187 13.786-1.744 21.558-5.355 26.518-12.321 41.2-48.737 45.904-76.092 2.086-12.13 1.156-42.435 1.12-56.226l-.191-95.565c-.08-46.753-3.982-84.394 12.14-128.518"/><path fill="#944a1d" d="M276.152 471.648c.406-1.28.439-1.853 1.491-2.618 1.661.166-.077 8.361-.274 9.475a687 687 0 0 0-1.217-6.857"/><path fill="#7a0c1e" d="M265.792 798.966c2.771 3.862.935 84.885.912 96.247-3.35-7.906-7.613-15.074-12.281-22.241-7.267-10.494-15.858-19.768-24.145-29.445 16.961-10.259 27.226-27.094 35.514-44.561"/><path fill="#a16e2c" d="M197.011 1213.88c15.091-13.81 30.486-23.48 42.772-40.57 15.543-21.62 26.956-52.07 22.499-78.88-2.652-15.95-10.323-31.53-23.886-40.89a52.05 52.05 0 0 0-38.977-8.45 45.6 45.6 0 0 0-29.003 19.39c-5.94 8.91-8.312 17.92-5.894 28.79 3.269 14.7 25.411 30.47 37.188 14.86 4.401-5.83-5.553-14.56-6.901-20.01-1.573-6.36 7.415-10.71 12.54-11.52 12.853-1.11 18.847 7.68 20.444 19.21 2.072 14.99-13.659 27.55-27.658 28.3-78.806 4.21-59.328-96.87 9.849-96.19a67.83 67.83 0 0 1 48.167 21.14c5.951 6.18 14.616 18.56 16.171 27.02 3.963 21.56 2.779 46.09 2.798 68.25l.046 90.22-1.04 318.99c.371 2.98 2.123 18.08.662 19.81-.093.11-.113.08-.242.07-.905-.82-1.069-1.91-1.156-3.07-12.271-25-11.194-57.69-11.241-84.83l.119-118.66c.068-25.06 2.627-53.32-2.455-77.85-4.184-20.2-13.707-41.14-27.727-56.44-9.755-10.65-22.483-18.01-37.075-18.69"/><path fill="#9a5c21" d="M276.126 1553.54c.371 2.98 2.123 18.08.662 19.81-.093.11-.113.08-.242.07-.905-.82-1.069-1.91-1.156-3.07.681-5.58.106-11.17.736-16.81"/><path fill="#7a0c1e" d="m263.932 1157.14 2.349-3.64c1.197 1.46 1.04 2.36 1.241 4.29-2.078 17.19-.313 57.16-.88 76.72-.128 3.32-.018 10.17-1.366 12.75-1.354-1.87-1.116-1.21-1.802-3.33-7.888-17.62-17.737-30.06-33.487-41.07 10.953-11.37 29.083-30.9 33.945-45.72"/><path fill="#a16e2c" d="M257.301 1639.78c-7.577-5.48-13.709-10.24-19.161-17.94-6.676-9.41-13.149-24.64-10.842-36.42.984-5.03 3.706-9.31 7.959-12.15.622.79 4.003 20.29 6.917 25.93 8.116 15.7 22.44 21.91 38.445 26.86.071 2.93-.154 6.91 1.077 9.61 1.845 4.04 5.825 7.76 8.881 10.88 11.79 12.03 22.655 23.86 24.178 41.49 1.576 18.25-3.327 36.37-15.361 50.39-8.338 9.7-20.279 16.79-33.217 17.62-6.832.44-19.395-.08-24.477-5.27-1.608-1.65-2.173-2.82-2.282-5.04 1.52.18 2.835.53 4.302.92 4.212 1.12 9.316.76 13.088-1.56 1.897-1.17 3.893-2.08 4.431-4.31-6.174-2.25-12.738-4.68-17.84-8.93-5.777-4.82-9.652-11.61-10.176-19.17-.818-11.8 5.923-20.98 13.277-29.4 24.155 16.97 10.179 33.43 17.834 42.72 1.732 2.1 4.833 3.41 7.497 3.65 5.596.49 11.076-2.62 15.239-6.1 7.881-6.59 12.794-16.6 13.554-26.81.579-7.78-1.315-15.22-6.522-21.19-11.131-12.77-35.422-17.73-51.464-18.69-16.6-.99-34.856 2.88-47.503 14.28-7.924 7.14-13.236 17.31-13.743 28.05-.404 8.53 2.698 17.28 8.694 23.42 3.305 3.38 7.627 6.11 12.491 6.1 6.081-.01 9.831-1.73 14.115-5.91l3.104 2.04c-.935 1.74-1.907 3.47-3.203 4.97a21.9 21.9 0 0 1-15.769 7.53c-9.461.31-18.899-4.72-25.571-11.12-7.571-7.26-12.72-17.22-12.911-27.81-.247-13.71 6.369-27.18 15.941-36.72 21.434-21.37 50.732-21.82 79.018-21.92M238.394 301.264c41.578-30.137 84.776 20.761 75.709 62.701-4.778 22.099-17.28 31.108-31.866 46.295-.439 3.778-.971 7.569-1.062 11.365-29.936 10.698-42.822 23.541-44.676 56.457-3.721-4.213-7.297-8.065-8.532-13.743-4.422-20.333 12.79-42.827 27.205-54.935q.64-.535 1.292-1.051c-27.689.952-52.322-.078-75.677-20.05-28.16-24.079-25.513-74.806 17.717-77.537 10.047-.634 16.434 3.982 21.143 13.224l-3.145-.036c-8.597-8.383-17.987-7.017-26.016 1.588a34.2 34.2 0 0 0-9.149 24.879 39.28 39.28 0 0 0 13.713 27.455c26.79 23.065 108.812 16.625 106.324-29.492-.843-15.642-21.532-41.591-36.926-27.377-1.673 3.329-1.803 6.204-1.931 9.858-.627 17.762-2.903 22.466-16.027 33.464-7.333-9.187-13.374-16.874-11.908-29.545 1.187-10.267 9.711-22.58 20.65-24.157 2.992-.432 4.698-.262 6.92-2.293-3.984-9.305-15.607-7.602-23.758-7.07m-102.63 691.767c13.102-.664 26.791 14.919 38.158 21.029 8.38 4.51 16.973 7.27 26.033 9.98-10.297 3.22-21.762 6.2-30.794 12.2-6.162 4.09-11.708 9.26-18.021 13.09-7.265 4.39-13.703 4.94-21.862 2.91-9.467-4.29-18.095-10.84-27.429-15.52-12.758-6.41-26.961-9.84-40.644-13.72 13.19-3.74 27.416-7.04 39.866-12.9 11.621-5.46 22.361-13.273 34.693-17.069"/><path fill="#c9a227" d="m285.588 988.902 1.41-6.251c5.264 19.859 16.149 29.699 33.215 40.719-16.682 13.04-26.308 21.76-33.251 42.81-.188.87-.381 2.81-1.353 3.25l-.154-.06c-.994-1.6-.129-8.22.107-10.09 2.189-18.58 5.425-24.99 20.189-36-13.485-10.13-17.538-18.06-20.163-34.378"/><path fill="#944a1d" d="M286.962 1066.18c-.188.87-.381 2.81-1.353 3.25l-.154-.06c-.994-1.6-.129-8.22.107-10.09z"/><path fill="#9a5c21" d="M216.692 1722.81c.236-.9.516-1.79.805-2.67.138-.42.258-.84.398-1.26.203-.61.569-1.7 1.244-1.95.065-.02.135-.03.203-.04.294.19.402.43.497.78.564 2.05.06 5.03-.043 7.18zm-.19-1398.856 3.145.036c.146 1.502.953 6.235-.27 7.316-1.225-.298-2.466-5.867-2.875-7.352"/><path fill="#944a1d" d="M285.588 988.902c-.202-1.448-1.467-8.291-.038-9.297 1.111.384 1.214 1.967 1.448 3.046z"/><path fill="#170509" d="M0 0h1509v514.504c-9.88-7.544 2.71-46.843-5.37-59.2-6.02-9.196-15.74-16.318-22.33-25.433-24.73-34.194-48.43-69.574-75.55-101.967-19.95-23.829-42.19-45.171-63.38-67.751-4.49-4.787-5.91-6.133-12.63-6.409-2.28-.093-18.98-3.202-20.16-4.487l6.59-.265c4.66.659 10.15 2.8 14.71 4.379-7.42-10.305-9.82-12.278-21.56-17.008-3.32-3.357-6.02-3.197-10.81-3.742-2.26-.258-12.78 1.901-10.96-2.917.49-1.303 10.05-1.278 11.4-1.403 3.5-.86 4.5-1.649 6.18-4.579 2.56-4.853 19.02-12.065 24.03-14.192 4.76-30.851 12.99-44.171 31.7-68.12-23.55 9.157-58.45 24.213-75.24 42.827-5.92 6.57-8.93 13.091-12.65 20.948-4.69-17.405-8.49-24.111-23.55-34.281 2.21 5.896 3.87 10.452 4.57 16.7l-.18.814c-1.49 6.893-.98 18.233-5.19 22.47-11.66 4.787-39.03-20.322-49.4-26.589-7.06-4.264-14.49-13.781-20.97-19.082-10.1-7.931-21.57-14.401-31.98-21.946-65.05-55.689-149.37-86.32-230.904-108.731-26.287-6.706-53.593-8.519-79.894-14.666C752.408.458 659.055 8.324 579.748 39.218c-7.311 2.848-15.184 5.011-22.551 7.895-72.837 28.512-148.669 59.134-214.61 101.405-14.138 9.063-24.02 21.031-34.403 33.873-6.665 8.154-36.949 36.561-45.704 34.837-4.259-5.059-6.188-20.613-6.508-27.277.438-7.226 1.477-11.998 2.909-19.018-12.999 10.227-17.078 16.381-22.244 32.35-11.518-28.473-45.843-44.365-73.252-55.965a333 333 0 0 0-14.923-5.78c17.961 20.234 28.376 39.613 32.294 66.763 15.925 7.687 18.666 11.759 31.113 18.948-6.262 2.055-12.26-10.289-18.317-9.539-3.249 3.366-3.041 11.148-4.543 12.596-7.258 6.999-13.715 15.366-20.118 22.879-10.631 12.472-25.336 23.538-36.326 35.062-19.521 20.472-36.043 43.707-53.46 65.997-12.997 16.632-27.886 34.98-39.59 52.581-5.534 8.323-33.576 35.99-36.097 41.334-2.021 4.283 2.614 58.673-1.755 65.335-1.591-.027-1.207.086-1.663-.122z"/><path fill="#a16e2c" d="M148.462 141.538a333 333 0 0 1 14.923 5.78c27.409 11.6 61.734 27.492 73.252 55.965 5.166-15.969 9.245-22.123 22.244-32.35-1.432 7.02-2.471 11.792-2.909 19.018-3.988 21.017 22.402 71.37 34.998 89.638 17.631 25.571 83.983 71.47 116.44 53.291 8.488-4.754 4.335-13.422 8.209-18.811 6.27-.132 13.031 7.017 12.57 13.54-.654 9.252-5.285 16.287-11.903 22.381l-.916.837c1.009.787 1.407 1.265 2.543 1.73a463 463 0 0 0 13.911 5.499c-31.119 7.326-56.616-.509-83.278-16.838a129 129 0 0 1-7.256-4.844c26.062 49.336 22.296 44.789 19.488 96.92l-7.202-21.565c-9.934 11.1-13.537 13.36-28.176 15.83-4.9 4.487-9.655 8.595-13.531 13.908-30.195 41.387-5.811 91.758 38.413 109.532.569.228 1.445 9.262 1.561 10.53 17.063-15.602 39.302-24.131 51.687-44.545 10.607-17.482 10.852-37.989-3.452-53.479a48.04 48.04 0 0 0-33.998-15.391c-24.295-.827-45.896 11.814-58.563 32.177 2.849-13.578 9.272-25.284 21.023-31.992 48.807-27.86 107.703 7.336 93.073 65.729-5.047 20.144-13.265 23.381-24.979 37.701l14.577 6.584c-3.15 1.778-8.751 4.764-11.526 6.756 3.176 2.35 6.263 4.723 9.611 6.822-26.393.29-48.574 10.32-67.055 29.225a130.2 130.2 0 0 0-33.165 59.825c-5.328 21.852-3.971 73.897-4.01 97.992a8997 8997 0 0 0 .477 151.821c.292 17.547 5.372 29.746 17.619 43.203 2.286 2.511 5.925 4.685 9.36 5.133.908-2.105 1.535-4.034.201-6.277-6.937-11.662-17.362-20.65-20.127-34.844-.706-3.621-.113-16.683-.089-21.683l.074-50.242-.16-106.952c-.055-19.409-.54-39.122.111-58.424 1.371-36.515 18.766-71.955 52.464-88.661 11.454-5.679 25.784-9.651 38.393-5.249 18.73 6.538 30.693 25.001 23.747 44.593-2.382 6.721-8.836 11.943-15.078 14.959-9.06 4.272-15.352-4.309-17.639-12.087-1.71-6.03-1.965-12.461-2.769-18.659-.024-.192-3.523-2.37-3.849-2.507-25.248-10.597-51.272 18.718-60.027 39.355-3.387 7.982-5.557 17.745-6.455 26.32-1.006 33.214-.404 66.998-.458 100.247-.071 43.17-.011 86.272.198 129.429.018 3.683.405 9.407 1.781 12.752 4.759 11.567 15.735 20.859 27.15 25.497a77 77 0 0 0 3.422 1.311c-9.046 9.675-9.426 14.83-14.424 26.885l-21.475-7.42c8.816 16.08 22.705 28.313 38.064 38.077-27.933-6.394-40.484-22.657-48.91-48.919-.896-2.793-2.014-11.461-3.104-12.92-.229 20.659 7.535 31.545 20.427 47.137 10.78 13.042 51.578 30.732 66.625 20.702-3.602-1.06-18.361-.34-24.909-.99 13.334-4.89 20.294-7.3 32.514-14.917 14.777 23.927 39.67 23.117 65.558 27.297-25.093 10.93-47.447-.1-64.441 27.48-2.281-1.07-31.033-13.6-30.729-13.24l.663-.59c4.937-.43 17.965-.69 21.474-1.81-8.468-2.06-13.183-2-21.799-1.36-39.064 10.65-64.383 30.12-65.903 73.39 9.368-33.17 14.159-58.05 53.9-65.47-15.955 9.3-30.926 21.99-40.055 38.3l19.348-7.67c5.002 11.82 6.551 16.72 14.908 26.61-36.307 19.99-30.29 35.24-30.137 71.58l.129 79.14-.35 81.58c-.144 27.14-3.607 54.94 12.502 78.68 9.331 13.75 22.662 24.82 39.121 28.24 37.031 8.32 4.722-38.57 40.333-32.44 15.117 2.59 18.741 20.24 16.114 33.02-4.999 21.96-30.415 30.59-50.407 25.04-22.524-6.25-39.031-21.03-50.689-40.95-17.155-28.67-15.087-59.48-15.058-91.42l.042-75.19-.447-83.6c-.167-32.19-5.991-56.28 24.101-77.1l-5.296-10.07c-30.331 24.27-26.268 48.14-26.201 82.96l.178 68.72.077 84.62c.08 43.81-1.486 81.79 28.283 118.27 19.839 24.32 46.857 36.84 77.972 37.71l-10.573 7c3.729 1.05 7.518 1.58 9.98 4.31l.1 2.06c-3.028 3.28-10.292 6.16-14.774 8.46 16.339 14.66 26.334 28.03 27.898 50.52 2.371 34.09-22.744 59.03-56.246 59.98-27.546.78-51.095-9.72-58.483-37.68l2.007-1.53c6.26 12.57 18.804 21.2 31.874 25.59 14.22 4.78 31.251 5.1 44.898-1.72a41.54 41.54 0 0 0 21.143-25.06c3.705-11.84 1.767-24.19-4.08-35-10.448-19.3-33.782-33.17-51.867-44.79-.145 3.34.458 8.77-1.283 11.53-2.26.32-3.721.06-5.911-.54-19.002 9.07-36.556 28.97-43.463 48.71a63.5 63.5 0 0 0 3.252 48.63c4.136 8.41 9.686 14.66 16.598 20.89 13.759 1.06 22.042 4.89 31.499 14.91 2.133-6.18 4.103-12.49 6.506-18.58 4.565 45.15 1.329 56.97-19.544 96.52 24.331-17.44 50.431-28.71 81.064-23.72 2.968.49 5.913 1.17 8.835 1.88-6.032 2.11-11.897 4.2-17.599 7.12 9.599 8.85 12.571 15.97 16.012 28.48 15.894 14.52 30.756 25.32 53.247 24.58 1.423-.04 2.8-.2 4.198-.45 20.899-.64 41.521-10.46 55.708-25.77 3.342-3.6 5.722-9.27 9.407-12.16 1.337-1.05 2.042-1.86 3.015-3.27a268 268 0 0 1-3.83-4.26c-1.198-8.82-3.831-17.74-7.448-25.85-6.873-15.43-19.373-28.84-35.383-34.84a44.36 44.36 0 0 0-34.682 1.18c-10.824 5.08-18.846 14.59-22.886 25.77-5.282 14.62-3.616 30.8 2.998 44.68 6.897 14.48 17.907 25.46 33.096 30.74-2.359.27-4.584.3-6.949.05-12.094-1.29-23.219-7.13-30.655-16.79-10.103-13.13-12.83-31.11-10.487-47.2 2.438-16.73 10.712-33.48 24.609-43.57a58.66 58.66 0 0 1 43.757-10.14c18.546 2.95 31.185 12 42.069 26.99l3.818-13.88 10.826 8.09c2.171-3.47 4.668-6.78 7.041-10.12-1.261 7.33-2.49 14.65-2.5 22.12-.031 21.6 9.588 41.22 24.618 56.31l-.239 2.86c-7.132-3.44-26.303-15.01-33.812-13.33-.463.1-.891.32-1.337.49-7.852 21.26-16.266 38.74-38.179 48.79-17.293 7.92-39.195 7.29-56.77.6-15.252-5.8-26.486-15.85-36.107-28.79-4.36 4.43-7.98 6.56-13.905 8.69 1.035-6.89 2.318-12.74-2.169-18.8-3.144-4.24-7.949-5.98-13.042-6.53-29.095-3.13-65.597 18.92-87.471 36.9-5.843 4.8-11.503 9.93-16.006 16.04-11.059 15.01-36.597 65.93-38.357 83.52-1.069 10.68 1.79 19.77 2.49 30.13-12.426-9.93-16.649-19.09-20.93-34.07q-.435 1.065-.892 2.13c-14.013 32.52-57.115 47.26-87.679 59.33 19.006-21.91 26.749-38.54 31.94-66.98 8.12-3.45 16.151-6.79 23.15-12.25.306-.89.602-1.79.923-2.69.424-1.17.96-2.35 1.059-3.61.19-2.43-3.536-5.04-5.008-6.72-10.805-3.23-15.969-9.17-21.33-18.68 3.987 1.58 7.977 2.8 12.096 3.97 11.993 5.46 30.833-1.75 40.007-10.37l3.156-10.67c32.692-7.73 56.339-19.9 76.401-48.32 14.979-22.37 31.954-50.48 28.084-78.39-1.61-11.62-9.325-17.19-20.508-14.49l-1.415.35-1.294-1.08c-.343-4.07 2.635-10.59 5.503-13.56-16.368-8.86-26.628-19.37-32.572-37.03-10.256-30.46 3.302-59.45 30.304-75.28 9.254-5.43 16.828-7.77 26.809-11.09-7.843-19.98-16.501-46.63-32.473-60.9 9.274 22.43 22.904 27.59-1.925 45.41 15.593-23.93-1.874-38.15-13.283-59.12-12.275-22.56-9.322-40.73-9.298-65.72l.089-77.01-.078-120.58c-.012-21.89-.14-43.99.245-65.86.075-4.24 1.324-16.85 2.754-20.61 10.206-26.85 26.859-39.01 50.76-51.16-31.823-13.93-53.627-36.283-54.171-72.548-.207-13.797.107-27.62.226-41.407l.296-89.089-.137-117.732c-.01-16.203-.482-37.369.568-53.421 2.754-25.868 26.897-42.73 29.228-67.779.818-8.784-5.475-11.251-6.076-14.644 3.303-.765 3.401-.701 6.477.565 14.242 12.945-1.352 33.013-6.918 45.228 17.338-16.185 23.75-37.423 32.031-59.19-16.123-4.398-31.542-12.879-43.117-24.998-24.345-25.491-18.628-73.331 8.622-94.585 4.199-3.275 9.415-4.213 13.56-8.009-7.828-7.144-7.239-9.215-9.986-19.66 9.66 7.199 19.986 8.137 24.281-5.585 5.136-16.411-.456-35.482-8.428-50.15-15.123-27.829-31.852-56.501-62.657-69.189-11.243-4.847-20.349-7.429-31.744-11.133-8.372-27-32.93-23.848-55.205-17.845 22.981-27.297 49.144-17.037 78.639-7.288-14.685-11.222-27.313-18.976-46.152-17.322-12.447-7.189-15.188-11.261-31.113-18.948-3.918-27.15-14.333-46.529-32.294-66.763"/><path fill="#7a0c1e" d="M200.5 1813.22c20.977 3.41 37.752-3.77 57.051-10.49-10.316 8.29-21.952 15.92-35.542 17.21-3.97.37-9.675-.04-13.426 1.29-1.67.59-3.815 3.71-5.057 5.01.306-.89.602-1.79.923-2.69.424-1.17.96-2.35 1.059-3.61.19-2.43-3.536-5.04-5.008-6.72"/><path fill="#a16e2c" d="M1185.51 427.324c28.38 7.571 41.25 49.5 33.23 75.147-8.56 27.395-31.53 39.039-56.58 47.227 12.02 19.33 11.93 41.68 33.57 62.652-4.49-10.541-14.49-24.113-11.47-35.524 1.16-4.365 9.38-9.765 13.69-9.489-2.48 5.934-8.18 7.139-6.69 17.484 3.42 23.709 25.7 39.502 28.25 64.49 1.15 11.279.63 27.009.63 38.365l.01 79.613.56 121.223c.35 61.666 9.95 104.034-54.47 136.278 29.71 9.17 51.68 37.49 53.35 68.5.91 17.03.58 34.13.57 51.19l-.07 89.43.14 105.64c.05 23.38 2.06 49.06-2.98 71.73-4.95 22.28-35.84 43.26-23.04 67.69 1.05 1.98 2.16 3.93 3.31 5.85-26.55-19.91-8.03-25.08-.79-46.65-15.97 15.66-26.97 40.34-33.84 61.51 23.27 4.73 34.53 12.72 49.1 31.54 19.7 25.45 8.32 81.86-24.82 90.07l-.43-3.1c8.01-7.29 13.24-13.6 17.57-23.79 6.4-14.61 6.59-31.19.54-45.94a89.97 89.97 0 0 0-48.82-49.11c-.46-4.07.98-8.18 2-12.25-16.39 16.64-37.43 23.9-50.05 43.33-7.53 11.59-11.87 23.81-8.61 37.66 2.35 9.9 8.56 18.44 17.25 23.73 31.83 19.69 67.91 1.34 85.96-27.92-2.94 11.13-6.04 21.08-14.37 29.1-36.35 34.97-104.08 13.5-103.1-40.7.45-24.92 11.07-37.69 27.4-53.86-4.67-1.72-11.96-3.13-12.45-8.4 2.15-3.17 5.38-4 9.04-5.57l-11.51-6.51c23.74-1.03 34.62-3.23 55.63-16.82 24.7-15.98 42.88-50.1 48.26-78.38 3.43-18.08 2.55-45.25 2.57-64.45l.05-92.03-.02-63.66c-.02-20.73 2.57-42.71-10.19-60.2-2.77-3.8-14-16.1-18.09-16.8-2.44 7.85 1.02 12.42 6.87 18.03 18.25 17.52 14.06 44.09 13.95 67.17l-.22 71.59.54 85.79c.1 18.26 1.16 39.59-1.77 57.46-4.74 26.11-18.25 52.01-40.12 67.62-21.45 15.32-55.52 18.01-72.01-5.78-9.07-13.09-4.41-33.29 8.9-41.7 8.16-5.15 18.71-1.1 22.59 7.35 4.05 8.39 2.37 14.41-.29 22.69 41.75 12.56 72.22-29.6 72.9-67.3.71-39.84.12-79.89.12-119.76l.12-71.68c.06-15.2 2.16-41.37-3.46-55.11-3.08-7.51-15.89-20.46-23.87-22.48-1.49-.37-.86-.05-2-1.4 6.95-8.98 8.6-15.68 12.51-26.35 6.6 2.02 14.26 5.08 20.82 7.51-12.3-18.65-21.71-26.48-39.52-38.68 4.27 1.24 12.13 4.92 15.81 4.6 3.76 5.56 18.65 13.82 26.78 27.23 6.2 10.21 8.56 28.59 11.01 31.36 1.62-3.3-.64-9.54-1.38-13.04-4.41-20.78-17.89-35.5-36.36-46.5-8.49-5.03-14.13-7.33-23.51-10.16-14.35-1.53-17.78-2.11-31.22 3.53 8.94-1.25 21.39-3.35 29.9.58-11.97 2.49-22.07 8.04-32.49 14.01-15.98-28.03-37.36-21.46-65.01-28.75l-1.32-.35c24.19-5.46 54.71-1.26 65.77-27.392 13.89 7.912 17.46 10.132 32.97 13.962-9.06 4.44-16.95 1.25-26.49 1.54 10.23 4.46 19.47 2.63 29.52.61 19.92-5.74 29.24-9.9 44.02-26.224 8.52-9.405 16.95-29.654 15.87-42.014-4.48 1.629-3.1 50.939-52.96 62.078 19.75-10.979 27.92-20.267 37.74-39.785a763 763 0 0 1-18.78 8.243c-3.92-12.285-7.16-16.8-15.59-26.474a83 83 0 0 0 5.23-1.903c10.68-4.21 21.29-14.6 25.32-25.438 2.74-7.375 1.82-223.875.15-241.518-1.14-12.125-3.49-21.636-9.09-32.501-7.49-14.517-20.25-28.252-36.27-33.103-6.13-1.857-15.25-3.024-20.96.492-7.53 4.634-2.9 14.746-5.34 22.052-1.4 4.191-4.79 7.71-8.88 9.357-4.11 1.655-8.62 1.197-12.59-.636-5.46-2.525-10.73-7.581-12.76-13.308-2.65-7.463-1.33-19.676 2.47-26.704 4.93-9.134 14.99-15.534 24.85-18.084 13.78-3.565 29.45.953 41.42 8.015 21.63 12.769 36.5 36.952 42.72 60.827 2.37 9.352 3.78 18.92 4.21 28.557.77 15.339.22 34.881.2 50.654l-.14 93.388c0 31.125 1.58 62.703-1.22 93.595-1.29 14.28-22.83 27.549-19.86 36.502l2.12.511c12.66-3.933 24.86-25.906 25.98-38.445.71-7.898.33-18.517.32-26.692l-.05-54.148-.1-101.373c-.04-23.409 1.96-53.014-3.89-75.223-14.3-54.267-45.8-84.666-101.74-91.5l10.15-6.894c-2.93-1.014-6.08-1.641-7.88-4.018l.48-1.956c3.78-2.722 7.75-3.674 12.21-5.15-9.71-13.188-19.21-16.758-24.8-34.889-17.88-58.044 37.44-96.801 89.03-71.516 14.36 7.035 20.78 19.009 25.2 34.227-15.01-20.454-35.26-33.608-61.69-31.808-25.23 1.717-45.55 22.701-42.3 48.709 4.12 32.939 33.65 43.835 56.52 61.781 1.96-1.722.06-8.26 1.5-9.001 48.85-25.14 75.21-84.557 23.39-123.072zM894.711 1653.92c-7.44 2.01-15.505 5.17-22.797 1.07-4.449-2.5-7.428-6.47-8.511-11.46-1.216-5.61.482-10.85 3.659-15.51 3.457-5.07 8.584-8.43 14.62-9.52 9.026-1.62 18.848 1.33 26.189 6.62 11.233 8.1 17.396 22.01 19.343 35.4 3.239 22.29-3.974 42.46-16.204 60.76 18.505-17.49 29.145-35.15 29.75-61.36.138-5.98-.551-11.81-1.37-17.73l6.455 7.24c3.82-2.95 7.602-6.11 11.674-8.71l2.374 15.03c14.68-15.49 28.473-28.08 51.037-28.78 15.1-.45 29.75 5.18 40.65 15.64 13.23 12.59 18.99 31.26 19.2 49.18.18 15.8-3.9 31.31-15.37 42.71a45.5 45.5 0 0 1-32.62 12.99c-.29-.01-.59-.04-.88-.07l.15-.86c2.85-1.11 5.7-2.24 8.39-3.69 13.95-7.53 24.27-21.23 28.63-36.37 4.19-14.56 2.96-30.63-4.44-43.97-5.54-10-14.5-17.6-25.58-20.65-12.06-3.32-24.69-.74-35.384 5.4-22.923 13.15-29.945 35.39-36.459 59.35-15.503.69-30.09 6.72-43.07 14.89 1.413.81 1.76 1.02 3.361 1.06 1.186.04 1.911.18 3.054.45.677.15 1.238.15 1.924.12 1.085-.04 1.871.13 2.782.69 1.595.99 4.016 1.43 5.802 2 1.605.51 2.43 1.27 3.823 2.21.136.1.306.13.449.21.776.44 1.291 1.57 1.389 2.43.016.14.012.28.029.42.049.41.112.82.169 1.22-15.927-3.97-25.712-2-39.81 6.46-4.447 2.67-8.946 5.36-13.174 8.37l15.301-3.66 1.541 1.9c-.29.07-.581.14-.87.22-19.921 5.35-38.096 16.17-58.476 21.08-35.152 8.46-135.028 9.42-170.794 1.71-20.449-4.4-39.278-13.06-57.962-22.21l1.245-1.78 7.153 1.04.217-.77a49.3 49.3 0 0 0-6.691-4.69c-17.191-10.11-28.315-11.72-47.383-6.67 8.837-5.66 15.554-8.98 26.163-9.3.254-.35.932-1.03.855-1.6-.119-.89-1.066-1.52-1.642-2.06l.239-2.86c.476.28.975.52 1.435.82.325.22.63.46.949.69.921.64.976.55 2.209.64-11.962-18.09-20.684-39.64-16.238-61.74 2.655-13.19 8.763-25.97 20.287-33.56 7.282-4.8 16.028-7.38 24.691-5.39 6.702 1.54 13.52 5.77 17.065 11.73 2.6 4.36 3.656 9.68 2.237 14.63-1.225 4.27-4.515 8.36-8.561 10.26-11.949 5.62-23.069-8.62-30.226 9.06-4.261 10.53-1.452 24.65 3.083 34.63 9.906 21.78 30.146 34.56 51.97 42.51 53.579 19.51 147.237 18.15 199.142-6.36 17.475-8.26 34.675-21.68 41.395-40.5 3.574-10 3.457-21.97-1.226-31.61-1.684-3.47-3.883-6.45-6.342-9.4"/><path fill="#7a0c1e" d="M914.147 1721.52c1.413.81 1.76 1.02 3.361 1.06 1.186.04 1.911.18 3.054.45.677.15 1.238.15 1.924.12 1.085-.04 1.871.13 2.782.69 1.595.99 4.016 1.43 5.802 2 1.605.51 2.43 1.27 3.823 2.21.136.1.306.13.449.21.776.44 1.291 1.57 1.389 2.43.016.14.012.28.029.42.049.41.112.82.169 1.22-1.578-1.46-3.075-3-4.916-4.14-7.226-4.47-14.595-4.52-22.526-2.42-1.051.28-1.997.53-3.079.64l-.3-.5c.15-.44.103-.37.407-.85.75-1.2 2.276-2.27 3.678-2.51.721-.12 1.565-.13 2.271-.39.565-.2 1.121-.43 1.683-.64"/><path fill="#944a1d" d="M592.841 1717.51c.476.28.975.52 1.435.82.325.22.63.46.949.69.921.64.976.55 2.209.64.73.6 1.171 1.05 1.826 1.73.232.24.478.47.71.71.441.47 1.601 1.57 1.52 2.35-.028.27-.173.45-.41.57-1.408.73-5.123.31-6.496-.23-.508-.2-.69-.4-1.195-.76.254-.35.932-1.03.855-1.6-.119-.89-1.066-1.52-1.642-2.06z"/><path fill="#c9a227" d="M1272.97 205.185c3.72-7.857 6.73-14.378 12.65-20.948 16.79-18.614 51.69-33.67 75.24-42.827-18.71 23.949-26.94 37.269-31.7 68.12-5.01 2.127-21.47 9.339-24.03 14.192-1.68 2.93-2.68 3.719-6.18 4.579-1.35.125-10.91.1-11.4 1.403-1.82 4.818 8.7 2.659 10.96 2.917 4.79.545 7.49.385 10.81 3.742 11.74 4.73 14.14 6.703 21.56 17.008-4.56-1.579-10.05-3.72-14.71-4.379-16.33-3.749-37.96 1.184-41.26 20.3-45.87 14.088-69.01 30.65-90.92 74.717-7.03 14.132-26.48 51.521-3.94 65.967 4.67 2.994 9.98.915 14.37-2.009.15 8.915-2.68 13.938-11.21 16.626l-5.47 1.623c-10.57-3.616-14.88-5.748-22.58-13.6l-3.81 11.676c-1.08.364-2.17.733-3.25 1.108-6.29-39.62.29-56.2 20.66-90.356-31.53 21.912-51.58 30.628-90.29 24.789 6.14-3.222 10.64-4.956 16.82-8.746-16.06-12.831-10.37-25.672-27.39-38.042-42.02-30.542-83.662-7.952-112.138 27.46l-1.07.19-.675-1.635c3.636-22.791 26.793-44.953 49.343-48.856 25.13-4.348 50.14-.573 68.63 18.292 4.54 4.621 6.1 4.891 7.03 11.649l1.87 1.294c5.23-4.118 7.57-6.082 13.61-8.827l1.23-.549c-4.08 25.866 19.27 27.662 38.04 22.888 25.44-6.47 51.32-22.86 71.19-39.841 13.48-11.524 22.55-31.363 29.98-47.092 7.9-16.737 23.52-41.388 19.05-60.414-.7-6.248-2.36-10.804-4.57-16.7 15.06 10.17 18.86 16.876 23.55 34.281"/><path fill="#7a0c1e" d="M1254.79 243.526c22.73-18.485 27.06-11.79 50.34-19.804-1.68 2.93-2.68 3.719-6.18 4.579-1.35.125-10.91.1-11.4 1.403-1.82 4.818 8.7 2.659 10.96 2.917 4.79.545 7.49.385 10.81 3.742-26.84-3.722-28.8-1.516-54.53 7.163"/><path fill="#9a5c21" d="M1179.27 1620.56c.62-.09 1.23-.2 1.86-.27 2.63-.3 3.46-.49 5.61-2.1l.43 3.1-.23.59c-2.55-.61-5.08-.95-7.67-1.32m-869.957-48.58c-.315-1.22-.85-2.95-.251-4.14.158-.11.068-.08.275-.09.396.26.632.49.872.91.125.22.227.45.366.66l.745 1.13z"/><path fill="#a16e2c" d="M1148.1 425.4c1.08-.375 2.17-.744 3.25-1.108-1.11 2.509-3.56 7.594-3.25 1.108"/><path fill="#d90308" d="M760.363 743.499c4.444-1.488 11.341-.827 16.118-.848 66.054-.294 134.159 30.173 180.645 76.645 33.713 33.703 58.514 71.489 67.784 118.749 2.99 15.289 4.1 30.931 6.3 46.346 2.42 16.899 7.9 34.259 7.72 51.349-.19 18.24-1.24 39.45-5.29 57.2-11.77 51.56-45.69 102.43-82.923 139.05-53.553 52.68-117.176 77.61-192.217 77.09-3.154-.07-6.203.21-9.341.39-31.634 1.85-66.746-.56-96.487-12.48-8.848-3.54-16.898-8.66-25.544-12.6-16.989-7.75-34.194-15.81-48.29-28.3-14.074-12.48-29.445-27.14-39.863-42.83-17.993-27.11-26.372-58.1-36.837-88.4-3.829-11.09-8.838-22.21-11.674-33.59-5.107-20.49-9.371-53.74-10.475-74.81-3.497-66.736 28.36-137.36 72.632-186.17 34.135-37.635 94.133-71.239 143.902-81.309 20.92-4.233 42.59-4.456 63.84-5.482"/><path fill="#e8120d" d="M757.777 952.682c.281-.099.547-.262.843-.298 8.512-1.033 30.221 11.176 36.942 15.823 14.999 10.371 22.233 24.085 25.251 41.953 3.212 19.01.214 40.97-11.273 56.9-6.26 8.67-23.615 22.54-34.418 24.16-7.018 1.04-13.927 6.78-21.226 4.44-.605.25-.891.42-1.619.42-14.424.07-34.691-12.42-44.56-22.34-12.774-12.82-19.231-30.59-19.121-48.58.11-18.08 4.615-36.499 17.823-49.429 13.084-12.808 32.78-23.115 51.358-23.049"/><path fill="#fedc71" d="M754.405 984.705c10.814.715 19.714 4.603 26.958 12.851a43.14 43.14 0 0 1 10.372 22.694c.274-3.87.088-4.89 1.799-8.22 2.139 2.48 3.743 6.77 6.643 6.08l3.298.54c-1.207 4.48-1.341 5.05-1.364 9.69l-3.107.97c4 7.26 8.55 20.58 13.566 30.21-11.382.7-24.161 3.12-34.329 3.5l-1.678 2.84c-1.398 1.45-2.251 2.58-3.474 4.18l-2.55-1.99c-4.019 7.85-10.801 17.61-15.717 25.39-5.754-9.16-10.724-17.97-16.706-27.24l-2.581 1.22-2.578-1.69-.991-2.77c-9.319.02-22.876-2.53-32.908-3.25 3.391-9.08 8.317-23.27 12.248-31.78l-2.517-1.08c.001-4.06-.297-4.77-1.181-8.84l3.217.09c-4.182-9.45-7.753-19.273-11.991-28.84 12.029-1.348 21.102-2.086 33.179-4.099-1.342 2.794-3.028 5.606-4.491 8.39l1.918 3.808c8.084-8.456 13.799-10.199 24.965-12.654"/><path fill="#d90308" d="M732.013 985.161c-1.342 2.794-3.028 5.606-4.491 8.39l1.918 3.808c-7.953 13.331-12.543 20.301-8.982 36.641 4.095 18.8 24.113 32.74 43.083 27.84a36.68 36.68 0 0 0 22.794-17.32c4.388-7.84 5.147-15.49 5.4-24.27.274-3.87.088-4.89 1.799-8.22 2.139 2.48 3.743 6.77 6.643 6.08l3.298.54c-1.207 4.48-1.341 5.05-1.364 9.69l-3.107.97c4 7.26 8.55 20.58 13.566 30.21-11.382.7-24.161 3.12-34.329 3.5l-1.678 2.84c-1.398 1.45-2.251 2.58-3.474 4.18l-2.55-1.99c-4.019 7.85-10.801 17.61-15.717 25.39-5.754-9.16-10.724-17.97-16.706-27.24l-2.581 1.22-2.578-1.69-.991-2.77c-9.319.02-22.876-2.53-32.908-3.25 3.391-9.08 8.317-23.27 12.248-31.78l-2.517-1.08c.001-4.06-.297-4.77-1.181-8.84l3.217.09c-4.182-9.45-7.753-19.273-11.991-28.84 12.029-1.348 21.102-2.086 33.179-4.099"/><path fill="#c9a227" d="M711.306 1027.93c2.481.58 18.324 30.9 20.66 35.03-9.319.02-22.876-2.53-32.908-3.25 3.391-9.08 8.317-23.27 12.248-31.78m20.707-42.769c-1.342 2.794-3.028 5.606-4.491 8.39-1.901 3.654-12.947 25.469-15.978 25.759-.44-.31-.428-.58-.719-1.21-4.182-9.45-7.753-19.273-11.991-28.84 12.029-1.348 21.102-2.086 33.179-4.099"/><path fill="#fe8040" d="M778.241 1063.02c3.54-5.38 18.449-32.28 20.763-33.71 4 7.26 8.55 20.58 13.566 30.21-11.382.7-24.161 3.12-34.329 3.5"/><path fill="#c9a227" d="M738.116 1066.2c5.208.03 30.167-1.09 32.423 1.85-4.019 7.85-10.801 17.61-15.717 25.39-5.754-9.16-10.724-17.97-16.706-27.24"/><path fill="#fedc71" d="M756.853 953.027c24.421 8.971 39.366 12.514 55.504 35.259-9.96-1.573-20.578-3.535-30.577-4.572-3.442-.693-4.404-.412-7.214-2.425-1.742-3.926-14.572-23.137-17.713-28.262m19.71 112.833 34.486-3.96c-15.315 20.55-29.982 26.19-53.995 32.61 5.11-7.85 11.321-16.7 16.035-24.47 1.223-1.6 2.076-2.73 3.474-4.18m-28.031-110.883c.734-.081 1.744-.338 2.465-.083.281.1.432.199.53.47.994 2.749-15.151 24.141-17.29 27.169-10.416 1.437-20.708 2.936-31.203 3.785-.704.098-1.686.369-2.406.168-.279-.078-.342-.169-.497-.402-.01-.428-.054-.362.12-.762 1.055-2.429 4.755-5.298 6.694-7.059 12.758-11.591 25.057-18.276 41.587-23.286m-48.107 107.493c14.054.51 18.735 1.22 32.532 3.26l2.578 1.69c2.604 4.92 13.176 20.99 16.84 26.83-23.141-5.78-36.724-12.71-51.95-31.78m103.05-43.82c2.646-9.16 6.475-18.49 10.124-27.308 8.641 25.758 8.776 39.718.285 65.658-1.643-3.83-10.8-27.56-11.773-28.66.023-4.64.157-5.21 1.364-9.69m-106.364 38.21c-9.478-30.27-8-35.6-.016-65.994 2.973 7.181 8.473 19.884 10.513 27.144.884 4.07 1.182 4.78 1.181 8.84-1.986 2.98-9.612 25.07-11.678 30.01"/><path fill="#fe8040" d="M780.853 986.168c9.597.865 20.99 2.604 30.498 4.179-4.737 9.493-7.702 17.803-11.174 27.763-2.9.69-4.504-3.6-6.643-6.08-2.83-7.25-10.691-18.09-12.681-25.862m-25.499-30.917c5.136 7.569 11.336 17.459 16.514 25.325.194.295.079 1.156-.161 1.263-1.545.684-8.68.313-10.289.32-4.768-.451-11.095-.089-15.917.343-1.61.09-6.281.904-7.159-.734.039-.262 15.568-24.299 17.012-26.517"/><path fill="#a16e2c" d="M620 299.571c41.409-16.593 61.644-23.511 107.582-23.187 53.773.379 109.426-4.673 158.77 22.226 2.391 1.296 7.103 3.37 9.742 4.28l-2.387 1.465-1.042-.386c-3.267-1.181-3.982-1.676-7.441-1.39 1.728 3.942 16.205 10.108 20.369 11.783 9.372 3.77 15.725 4.315 25.631 3.336a110 110 0 0 0-.59 3.366c-6.711 3.523-9.139 2.925-16.67 4.029 1.488 1.749 1.542 1.573 3.747 2.37 14.022 8.835 23.074 7.509 39.337 19.804 1.472 4.158 3.46 10.324 5.346 14.121 1.094 13.002 19.788 36.123 32.162 41.403 66.144 28.226 92.884-68.92 32.524-97.077 1.58-1.103 2.48-1.695 4.19-2.607 14.78 4.307 23.78 9.028 31.44 23.066 17.03 31.258 6.18 73.735-26.16 90.038a54.6 54.6 0 0 1-42.022 2.84c-15.346-5.076-23.559-14.212-33.788-25.815-.986 4.592-2.153 10.886-3.46 15.241-4.002-3.35-7.414-6.212-11.145-9.858-2.69 3.126-5.418 6.205-7.919 9.482 3.3-25.72 3.278-44.393-13.536-66.293-3.677-4.789-12.083-14.91-16.785-17.679l-.982.381c14.721 17.649 23.813 35.364 21.878 59.216-1.83 22.547-16.945 47.674-42.796 46.621-18.292-.745-32.179-21.401-16.072-36.36 5.778-5.367 20.988 4.238 27.26-2.052 12.422-13.316 7.376-36.313-1.548-49.689-13.628-21.434-44.928-37.173-70.354-40.997-58.922-8.862-135.405-12.544-188.821 18.575-25.584 14.905-41.462 49.859-23.603 76.806 40.841-17.361 40.252 27.691 16.181 33.185a36.08 36.08 0 0 1-27.556-5.108c-31.03-20.481-23.835-65.806-5.619-92.726l.415-.607c2.244-2.88 4.65-5.62 7.027-8.392-5.554 1.104-13.011 1.336-18.799 1.693-3.154-1.217-6.276-2.798-9.335-4.263-6.181-4.608 6.738-2.206 8.566-1.936 12.42-.691 31.104-6.812 39.98-14.918l-3.525-.991z"/><path fill="#c9a227" d="M575.171 320.412c-6.181-4.608 6.738-2.206 8.566-1.936-2.27 1.676-4.514.077-8.566 1.936"/><path fill="#a16e2c" d="M1232.58 482.261c-.19-1.267-1.43-8.916-.22-9.654l.25.09c.7 1.103.85 1.678 1.18 2.955 14.94 40.321 11.26 83.692 11.24 126.581l-.12 97.774c-.02 16.824-1.71 42.445 1.67 58.222 7.78 36.285 26.98 69.314 65.51 75.866-12.99 9.919-26.58 19.793-37.28 32.233-25.15 29.238-41.81 83.678-15.37 117.197a52.95 52.95 0 0 0 35.69 20.095c12.74 1.36 25.34-2.54 35.52-10.164 20.66-15.464 20.41-56.621-9.34-60.635-5.39-.727-12.92 3.807-14.29 9.415.68 7.756 12.6 18.674 4.79 25.201-22.27 18.605-41.78-21.674-20.36-36.342 29.45-20.162 73.47-.931 68.6 38.975a55.4 55.4 0 0 1-21.27 37.06c-13.26 10.35-31.9 14.32-48.35 12.07a66.7 66.7 0 0 1-44.51-26.603c-17.54-23.468-14.12-56.896-14.24-84.98a5487 5487 0 0 1-.1-81.143l1.48-248.715c-.01-17.575.13-35.151.41-52.724.2-12.177 1.03-31.164-.89-42.774"/><path fill="#944a1d" d="M1232.58 482.261c-.19-1.267-1.43-8.916-.22-9.654l.25.09c.7 1.103.85 1.678 1.18 2.955z"/><path fill="#7a0c1e" d="M1242.62 799.46c2.84 3.766 4.58 8.911 7.05 13.028 7.9 13.179 17.68 23.06 29.46 32.736-9.64 7.945-16.91 17.073-24.29 27.027-5.24 8.106-9.54 16.533-13.75 25.2 1.77-32.56-1.09-65.557 1.53-97.991"/><path fill="#a16e2c" d="m1233.26 1499.26-1.58-284.82c-.07-25.71 0-51.41.2-77.12.03-31.25-3.96-64.81 20.1-88.98a66.15 66.15 0 0 1 48-19.6c33.65.39 60.9 22.58 60.32 57.38-.46 25.44-20.12 39.15-44.37 38.58-21.47-.5-42.3-17.7-30.56-40.51 1.09-2.1 5.39-4.64 7.57-5.6 9.66-4.25 29.45 1.11 18.65 14.82-6.37 8.1-6.7 15.62 3.93 19.89 18.43 6.97 30.72-15.21 29.79-30.65-.45-7.27-1.12-9.76-4.72-15.52-27.48-43.99-88.95-20.29-93.44 27.64-2.96 31.59 5.52 56.03 23.6 81.81 8.77 12.12 20.62 21.71 32.85 30.25 3.07 2.14 6.68 4.67 9.56 7.06-41 5.81-59.13 40.06-66.58 78.45-3.72 19.14-1.82 47.84-1.77 68.22l.25 118.42c.03 28.86 1.13 61.97-10.47 88.89-.04.92-.2 2.99-1.39 3.19.07.11-.31-67.11.06-71.8"/><path fill="#9a5c21" d="M1233.26 1499.26c2.71 3.35-.2 58.84 1.33 68.61-.04.92-.2 2.99-1.39 3.19.07.11-.31-67.11.06-71.8"/><path fill="#7a0c1e" d="M1242.03 1151.72c9.46 19.61 21.73 36.03 36.77 51.69-9.54 6.61-16.43 13.58-23.31 22.86-5.32 7.93-9.42 16.42-13.3 25.12-.95-32.97-1.16-66.71-.16-99.67"/><path fill="#a16e2c" d="m683.135 184.45-1.11-.604c-23.392-12.861-11.187-44.729 10.59-49.047 29.972-5.944 51.766 15.639 57.748 43.965a79.3 79.3 0 0 1-10.733 59.926c-20.33 31.217-59.035 27.784-91.123 29.605-54.74 3.106-114.606-4.241-168.472 5.455l-2.398-2.342c52.835-25.889 90.726-19.555 147.362-19.269l4.467.314.438-.731-4.91-2.805c-9.678-6.443-13.896-10.917-21.422-19.427-14.856 11.6-34.578 16.332-53.184 16.641-3.049.493-17.413 1.727-19.323.36 2.077-.985 3.91-1.535 6.202-1.396 29.691-7.776 67.863-25.279 73.117-59.387 1.11-7.203.56-13.84-4.026-19.683l-.701-.881 1.252-1.166c1.944.221 2.729.352 4.523 1.291 23.365 12.226 15.261 36.507 4.687 55.411 17.045 34.458 64.624 43.204 94.89 22.401a51.83 51.83 0 0 0 22.105-34.103c3.777-21.588-3.77-53.96-29.292-57.574a21.48 21.48 0 0 0-16.63 4.465c-9.434 7.678-7.479 18.379-.14 26.683q-1.964.936-3.917 1.898"/><path fill="#944a1d" d="M550.388 246.131c-3.049.493-17.413 1.727-19.323.36 2.077-.985 3.91-1.535 6.202-1.396 5.498 1.154 7.596.715 13.121 1.036"/><path fill="#a16e2c" d="M1035.39 275.857c-21.35-6.657-47.486-6.961-69.813-7.116l-85.392-.138c-39.262-.048-87.016 4.589-111.717-31.615-19.05-27.922-14.402-79.619 14.97-98.095a40.2 40.2 0 0 1 30.275-4.992c24.578 5.665 35.967 38.049 12.991 50.291l-1.212.639-4.461-1.717c8.205-7.502 9.346-17.455 1.007-25.442a22.63 22.63 0 0 0-16.92-6.18c-24.955 1.497-31.896 32.994-29.887 53.182a53.72 53.72 0 0 0 19.596 36.52c13.742 11.01 32.396 14.402 49.577 12.445a61.1 61.1 0 0 0 41.133-23.217c2.981-3.787 4.768-6.645 7.023-10.851-5.375-11.285-12.189-26.097-8.716-38.782 1.62-5.914 12.8-18.797 19.617-17.788l1.599 1.996c-2.541 4.076-6.092 8.796-6.467 13.526-2.922 36.809 40.549 56.856 69.374 66.253-2.802 2.05-5.148 1.564-8.746 1.539-23.519-1.501-37.391-5.901-57.054-18.663-7.822 11.552-13.44 17.866-26.463 23.771l-1.829.546c2.922 1.793 13.542.652 17.306.162 54.665-.087 95.128-5.414 144.009 21.713zm62.53-24.134c-3.04-26.594-3.19-48.854 13.43-72.366 22.04-31.194 75.39-28.29 80.74 13.741 1.59 12.535-2.65 18.184-14.26 22.882l.24-3.702c9.82-9.299 3.75-23.329-4.87-30.655-14.3-12.155-38.39-4.574-48.2 9.789-20.64 27.037-11.81 79.997 14.23 100.705 14.42 11.468 39.68 5.552 49.48-9.423 10.35-15.084-.55-25.689-16.23-25.198-13.19.413-19.57-1.529-28.58-11.034 14.82-22.271 32.38-31.723 52.75-6.684 5.9 7.26 3.65 8.278 5.79 16.534l1.66.305c11-7.994 6.96-15.589 10.48-25.812 3.19 1.938 7.57 13.503 7.94 16.797 5.2 46.687-59.24 80.968-97.23 55.053-13.33-9.088-17.27-18.887-30.11-27.422-1.56-.938-9.62-1.282-11.97-1.401-7.68-27.531-23.57-48.923-55.03-41.07 6.02-6.961 10.84-12.75 20.78-13.244 20.84-1.035 37.93 17.293 48.96 32.205m-763.732-36.081-1.088-.232c-30.494-6.711-16.35-55.489 19.633-56.305 48.158-1.091 64.701 46.006 58.767 85.875-.208 3.53-.881 4.171.593 6.611 1.448-1.844 1.457-1.523 2.252-3.66 8.048-10.512 16.526-19.21 28.498-25.279 11.179-5.668 29.324-5.137 35.275 7.75-.8 1.976-1.765 1.235-4.308 1.025-26.708-2.206-43.141 19.224-47.228 43.148-31.244 1.755-25.491 28.892-63.336 35.974-44.94 8.409-99.58-40.772-67.882-82.711-1.471 17.306-1.297 21.173 13.443 31.472.529-7.76.427-11.67 4.434-18.663 7.468-13.034 22.58-21.164 36.469-11.394 6.318 4.444 11.819 10.75 17.334 16.505-22.912 21.986-37.409 4.835-48.061 15.87a13.08 13.08 0 0 0-3.603 9.832c.358 6.496 5.011 12.885 9.855 17.003a40.04 40.04 0 0 0 29.513 9.115c32.228-3.23 42.183-52.261 40.85-78.162-1.744-33.892-38.569-57.975-65.193-32.917-6.71 6.314-5.35 21.511 3.425 26.807zM1246.03 1740.89c6.9 3.67 11.36 6.44 19.4 5.98l4.36-.22c-.1 1.73.03 1.77-1.3 2.91-6.76 5.83-17.69 7.88-26.36 6.95-12.85-1.38-25.05-8.64-32.94-18.79-11.09-14.27-16.82-33.16-14.51-51.17a60.45 60.45 0 0 1 21.21-38.57c3.15-2.66 8.21-5.94 10.42-9.32 2.27-3.47 1.48-9.95 4.55-12.31 3.97-3.04 10.6-4.58 15.22-6.7 11.68-5.35 22.2-18.67 24.42-31.38.81-4.61.05-10.72 1.86-14.9 2.62-.16 2.59-.09 4.71 1.49 4.51 8.35 4.68 21.19 2.23 30.23-4.09 15.06-15.37 26.86-28.13 34.98 29.11-.4 57.05.14 79.21 21.91 9.52 9.34 15.44 21.67 15.54 35.11.07 10.79-3.96 21.27-11.74 28.83-7.09 7-16.73 10.8-26.68 10.53-5.31-.12-10.31-1.79-14.01-5.75-1.77-1.89-3.1-4.55-4.09-6.94l1.58-2.26c.14.22.28.44.42.65 2.36 3.51 5.7 5.66 9.93 6.29 5.15.77 9.76-1.5 13.66-4.67a30.23 30.23 0 0 0 10.94-20.84c.9-10.55-2.81-21.93-9.81-29.86-9.68-10.98-24.59-14.82-38.69-15.63-19.54-1.12-46.53 3.88-61.66 17.49-5.98 5.38-7.72 12.12-8 19.86-.32 8.83 2.71 18.3 8.88 24.77 5.84 6.13 13.25 9.47 21.76 9.35 2.26-.03 4.35-.48 5.98-2.12 5.57-5.61-2.04-32.49 13.05-42.68 2.81-.26 4.09-.37 6.48 1.5 6.53 5.1 11.1 16.77 11.29 24.85.17 7.34-3.13 15.51-8.32 20.68-5.75 5.73-13.28 7.67-20.86 9.75m-7.29-1448.691c13.65-.767 23.21 2.702 34.81 9.594l-14.91-1.56c-4.14 1.72-8.42 4.078-11.39 7.49-.77.875-.46.372-.31 2.017 5.63 1.452 11.89 2.736 16.87 5.847 5.64 3.518 9.83 9.189 10.95 15.796 2.02 11.901-4.66 23.101-11.2 32.365-24.46-18.961-10.79-31.807-20.47-43.477-1.34-1.613-3.24-2.448-5.32-2.503-6.63-.174-14.47 4.048-19.18 8.538-6.94 6.614-11.13 16.745-11.3 26.298-.14 7.886 2.85 15.034 8.41 20.579 13.25 13.234 37.36 18.013 55.39 17.882 15.87-.115 33.26-4.29 44.63-16.064 7.54-7.806 12.01-17.777 11.82-28.681-.14-8.042-2.9-16.288-8.91-21.86-4.68-4.338-11.29-6.744-17.68-6.015-4.92.562-8.39 6.03-11.13 9.662l-.52-.861c.66-4.483 1.08-8.599 4.72-11.778 5.54-4.837 13.38-5.156 20.31-4.78 7.19 1.723 13.84 4.642 19.28 9.745 7.25 6.787 10.99 16.336 11.31 26.171.48 14.73-5.63 29.382-15.84 39.899-20.02 20.614-50.12 22.166-77.1 22.432 10.01 7.321 17.66 15.185 23.33 26.362 4.61 9.093 8.01 19.803 4.52 29.859-1.18 3.383-3 8.003-6.33 9.59-1.97-2.488-2.81-17.074-5.23-22.461-7.5-16.682-23.65-24.477-39.78-30.652-.11-2.766-.03-6.209-1.22-8.746-7.64-16.259-24.71-19.931-31.36-45.809-4.33-16.851-.36-35.864 8.46-50.673 7.47-12.546 20.5-20.643 34.37-24.206M540.014 1486.69c15.872-4.86 39.881-20.03 51.734-31.56-7.929 15.62-18.984 39-30.229 51.65l6.674 12.76c-13.763 3.5-27.771 4.52-35.456 17.99-6.763 11.85-7.431 30.3-3.747 43.1 6.071 21.1 21.116 37.31 41.963 43.51-15.617 15.19-28.328 10.04-42.824-3.66-5.358-5.07-7.051-10.54-10.245-16.91l-1.039-.03c-1.003 2.04-1.882 4.87-3.542 5.57-9.824-14.77-5.212-52 .612-67.84-14.658 13.51-22.179 19.84-38.33 31.23 18.041-28.63 38.513-40.83 60.312-62.74l-.921-1.17c-19.687 22.73-67.616 44.57-95.436 26.23l-.158-1.47c1.802-1.22 3.464-2.33 5.318-3.47-.965-1.17-.77-1.01-2.163-1.58-10.509-4.28-19.826-12.25-23.957-23.01-2.471-6.43-2.394-19.1 3.938-23.37l2.006.52.485.97c16.81 33.4 48.154 44.44 83.993 29.63 13.703-5.66 17.337-21.25 21.823-34.41z"/><path fill="#9a5c21" d="M534.976 1508.59c8.304-11.16 11.979-7.48.921 1.17z"/><path fill="#a16e2c" d="M917.084 1455.44c16.763 13.73 32.457 21.71 51.802 31.25 2.341-2.91 5.192-5.57 7.859-8.21 10.665 17.14 8.693 32.07 34.215 38.39 23.66 5.86 48.26.89 64.91-17.76 3.22-3.6 6.71-16.17 9.8-17.99 4.22 4.08 5.85 7.74 6.06 13.67.73 20.86-10.59 25.58-26.36 34.75 1.74.99 2.71 1.63 4.34 2.79-7.19 13.9-46.17 7.95-57.62 2.72-13.38-6.11-29.548-16.17-38.984-27.59l-1.016 1.32c3.523 2.88 8.518 8.39 12.624 11.9 19.026 16.3 34.526 29.57 47.676 51.15-17.11-9.88-23.09-16.54-37.347-30.24 4.496 13.06 11.377 56.63.482 66.87-4.13-1.1-1.71-4.06-4.401-5.34-2.973 6.75-4.475 11.55-10.181 17.24-9.737 9.71-26.895 18.19-39.234 7.65-1.124-.96-.559-1.65-.331-3.14 4.236-4.15 9.08-4.8 14.395-8.11 28.022-17.46 42.107-74.31 6.622-91.34-4.211-2.02-16.493-4.65-21.952-6.02 2.495-4.01 4.905-8.23 7.299-12.31-10.69-12.12-24.073-36.77-30.658-51.65"/><path fill="#9a5c21" d="m972.09 1508.78-.623-.4c-7.352-4.86-2.709-6.31 1.639-.92z"/><path fill="#a16e2c" d="M518.277 446.823c2.748-8.837 4.1-12.173 9.923-19.42 8.273-10.294 31.869-19.086 38.934-3.063-4.342 2.68-14.608 7.386-18.011 10.291-20.789 17.749-30.641 52.212-16.227 76.667 8.952 15.187 21.214 12.179 34.781 17.363l-5.847 11.849c10.067 15.443 21.886 34.676 28.692 51.922-17.094-13.862-28.319-21.39-48.904-29.885l-11.466 7.424c-3.75-13.117-7.006-27.47-20.135-33.824-27.725-13.421-66.405-5.061-81.836 22.977-1.718 3.12-2.176 5.664-4.283 8.731-6.741-.586-6.358-17.418-5.48-22.518 2.379-13.812 14.063-19.678 25.124-25.613-1.621-.782-5.303-2.198-6.009-3.426 21.703-12.411 57.472-7.041 77.144 7.146l2.128-1.443c-10.621-9.708-33.268-34.51-41.602-45.814 12.399 6.681 28.387 19.782 38.663 29.569-3.375-12.11-11.786-56.349-1.152-64.177 3.052.355 4.132 2.581 5.563 5.244"/><path fill="#944a1d" d="M516.805 522.001c2.281 1.065 22.779 20.236 22.644 21.507-1.83.879-22.271-17.703-24.772-20.064z"/><path fill="#a16e2c" d="m940.813 425.135.481-.592c20.112-25.14 42.377 4.784 51.575 22.954 1.089-2.435 1.564-3.978 3.439-5.91 7.612 6.241 5.252 44.405 2.526 53.988-.845 2.975-2.822 7.77-4.136 10.732 7.342-6.813 30.312-25.745 38.312-30.548-12.54 19.613-32.53 38.682-49.655 54.589-3.079 2.539-5.275 4.211-7.883 7.309l.403.481c3.239-2.268 5.072-3.864 7.968-6.438 3.651-2.02 8.172-5.473 11.889-7.925 17.348-11.445 56.788-23.064 74.938-7.718-1.29 1.268-1.29 1.207-2.13 2.798 3.92 5.367 14.14 7.841 19.29 16.731 4.36 7.504 6.41 12.77 4.4 22.194-.79 3.711-1.4 5.117-4.14 6.894-6.63-2.052-8.57-11.194-13.28-16.419-17.31-19.235-47.79-22.018-71.1-13.691-16.097 5.751-19.612 20.552-25.529 35.005l-7.976-8.999c-15.449 7.273-38.442 21.126-52.201 31.125 7.696-15.79 17.43-36.792 28.658-50.07l-5.301-11.923c6.083-1.222 11.901-2.389 17.729-4.644 27.033-10.449 29.303-42.714 19.212-66.196-7.694-17.904-20.016-26.627-37.489-33.727M477.561 303.246c4.341-.434 4.741-.385 8.994.37-1.526.541-2.395.774-3.94 1.135-62.465 27.148-36.085 124.699 30.172 98.16 23.975-9.603 32.736-37.085 39.574-60.036 9.728-2.55 14.835-3.96 24.077-8.204 4.462-2.049 14.615-7.462 18.606-8.855l1.406 1.009-1.149 2.24c-25.405 24.527-28.738 47.524-24.852 80.855l-8.263-10.432-11.12 9.371c-.059-4.183.45-8.632-1.665-11.96-5.69-1.539-14.875 12.976-21.454 16.626-78.027 43.278-131.951-89.762-50.386-110.279"/><path fill="#9a5c21" d="M477.561 303.246c4.341-.434 4.741-.385 8.994.37-1.526.541-2.395.774-3.94 1.135z"/><path fill="#a16e2c" d="M1369.65 993.042c15.63.303 28.46 13.548 42.38 19.308 11.33 4.7 23.61 7.64 35.42 10.94-25.52 6.92-39.99 13.34-62.72 26.26-23.56 10.34-26.18-4.69-43.34-14.29-9.57-5.35-20.63-7.8-31.17-10.5 10.07-3.13 20.58-6.08 29.55-11.81 10.61-6.76 17.29-16.358 29.88-19.908M896.245 1673.49c-.063-.85-.189-1.36.062-2.13.177-.15.195-.25.404-.24.325 0 .509.24.669.49 1.754 2.82.415 9.47-.163 12.65-.559 4.62-1.9 9.12-3.966 13.3-9.818 19.69-31.164 31.49-51.241 38.16-51.523 17.14-146.045 16.9-195.34-8.31-15.494-7.93-28.804-20.23-34.189-37.2-1.437-4.53-3.392-13.6-1.122-17.89 4.141 4.93 4.689 14.81 8.644 20.83 15.168 23.1 43.347 34.15 69.346 39.61 50.196 10.55 133.796 11.04 178.21-18.49 15.651-10.4 24.97-22.3 28.686-40.78"/><path fill="#9a5c21" d="M896.245 1673.49c-.063-.85-.189-1.36.062-2.13.177-.15.195-.25.404-.24.325 0 .509.24.669.49 1.754 2.82.415 9.47-.163 12.65-.308-3.6-.532-7.19-.972-10.77"/><path fill="#a16e2c" d="M754.406 63.586c4.946 4.14 18.593 49.309 21.574 58.079-5.329 18.909-13.267 35.498-20.257 53.702-8.343-17.502-16.312-35.011-21.786-53.675 5.915-19.53 13.666-38.845 20.469-58.106M611.523 364.212c19.41-73.566 166.943-67.359 223.572-52.677 20.45 5.303 45.365 17.975 56.489 37.126 3.308 5.693 9.998 21.211 5.604 27.262-16.979-59.761-86.655-64.082-139.236-65.238-47.442-1.043-130.963 5.473-144.99 61.987.015.924.331 2.908-.735 3.424-2.255-.489-.88-10.397-.704-11.884"/><path fill="#9a5c21" d="M611.523 364.212a164 164 0 0 0 1.439 8.46c.015.924.331 2.908-.735 3.424-2.255-.489-.88-10.397-.704-11.884"/><path fill="#a16e2c" d="M414.805 413.031c14.412 8.537 34.758 21.056 50.628 26.649 1.039.366 13.179.726 15.32.787 2.069 1.951 1.413.773 1.838 3.752-3.451 6.075-11.353 7.808-17.814 7.358-16.396-5.376-17.833-11.161-30.685-19.26 2.228 2.769 18.243 20.105 20.721 21.895 7.348 8.683 30.874 33.612 16.064 44.941-1.634 1.25-1.148.894-3.227.643-2.594-4.164-2.107-10.968-4.214-16.305-3.848-9.749-8.916-18.502-14.002-27.61 2.318 16.987 2.326 19.686-11.289 30.414 3.444-17.875.823-25.905-7.482-42.305-5.272-10.412-9.421-21.045-15.858-30.959M1042.83 1544.92c-1.46 18.8 7.63 33.18 17.33 48.46-1.28-4.21-3-8.82-3.62-13.17-.6-4.12-.14-6.81 2.46-10.11 2.14-2.72 4.97-6.01 8.57-6.4l1.08.89c-5.72 24.53 13.39 46.11 22.47 67.47-13.18-6.08-26.14-12.1-38.7-19.42-9.21-4.74-15.09-6.93-25.45-4.12l-.48-.97c.55-1.9 1.1-3.91 2.15-5.62 1.89-3.07 5.03-5.44 8.61-6.07 16.01-2.81 31.17 18.04 42.74 26.34l1.15.81c-13.48-14.07-27.07-28.79-39.45-43.85-4.58-5.57-10.36-14-9.27-21.59.85-6.03 5.9-9.3 10.41-12.65m-590.199 40.5c7.189-13.3 11.231-24.04 12.938-39.15.713.47 1.417.96 2.112 1.45 3.368 2.41 8.046 5.24 8.537 9.73 1.487 13.59-36.979 52.18-46.282 62.6 13.202-6.36 22.564-21.96 38.279-23.79 3.192-.37 6.354.45 8.767 2.62 2.459 2.22 4.709 6.27 4.814 9.59-3.657.07-7.573-2.47-11.147-1.76-11.896 2.35-37.558 19.19-53.409 24.6 7.194-15.47 19.849-33.94 22.597-50.69.713-4.34-.685-10.62-1.177-15.09l2.241-.52c5.201 2.41 8.31 7.16 10.894 12.05-.704 4.03-1.675 8-1.105 12.09 1.117-1.3 1.549-2.07 1.941-3.73M1092.58 413.967l.89 1.003c-5.71 10.049-11.54 20.093-16.81 30.382-7.01 13.675-11.31 25.048-6.42 40.149-4.03-2.169-8.69-4.512-11.22-8.474-4.42-6.911-.98-16.009.91-23.26-9.62 14.423-13.77 27.893-18.31 44.383l-1.46.642c-.8-.246-1.61-.505-2.37-.875-2.47-1.205-4.58-3.931-5.3-6.57-1.64-5.982 2.95-12.19 5.98-16.967 9.89-13.163 22.31-24.32 32.12-37.423.99-1.319 2.11-2.196 1.86-3.894-8.49 6.495-14.87 14.807-25.36 18.219-5.29 1.72-10.99 1.921-15.94-.915-2.92-1.669-4.4-3.613-5.39-6.764.26-.756.23-1.682.77-2.269.36-.391 10.72-.363 12.27-.503 13.68-1.237 41.75-19.196 53.78-26.864M482.775 288.381c13.616-2.047 30.06 1.367 42.035 8.04 17.348 9.666 27.607 26.584 32.933 45.25-4.513-3.308-7.898-7.604-11.627-11.721-9.796-10.815-19.359-18.89-32.732-25.049-24.587-9.396-49.447-9.391-71.134 6.681-4.01 2.972-8.596 9.462-12.92 11.184l-.441-1.845c1.2-3.434 3.063-6.365 5.279-9.232 11.125-14.395 31.243-21.208 48.607-23.308"/><path fill="#c9a227" d="M803.691 215.096c4.606-5.912 15.801-21.834 23.306-21.847 20.592-.034 33.284 15.381 45.402 29.651-17.044-7.397-27.531-7.665-37.639 9.575l-2.091.346c-4.512-14.356-16.051-15.919-28.978-17.725"/><path fill="#a16e2c" d="M677.854 192.184c12.947 1.203 16.486 12.604 25.079 20.28l2.814 2.5c-7.964.336-16.498-.383-22.83 5.493-4.172 3.872-6.391 9.397-6.574 15.044-.037 1.136.098 2.229-.662 3.16l-.18.007-.186-.175.427.205c-1.779-1.741-2.749-5.247-3.662-7.573-3.164-5.255-5.82-9.286-11.684-11.844-8.211-3.583-15.224 1.289-22.591 4.388 9.7-14.888 22.124-27.444 40.049-31.485"/><path fill="#c9a227" d="M407.296 1603.97c4.202 3.86 6.433 9.38 6.852 15.03.265 3.58.002 6.58-1.682 9.8-5.273 10.09-27.959 32.12-36.828 42.38 1.865-3.97 3.914-7.91 5.687-11.92 1.198-2.77 2.373-5.57 3.277-8.46 2.366-7.56 3.381-17.09-.592-24.3-.996-1.8-3.282-3.77-3.923-5.53-.144-.4-.091-.36.063-.7.426-.25.346-.26.855-.34 3.231-.55 7.085.87 9.622 2.81 3.022 2.3 4.806 6.03 5.304 9.75.203 1.52.398 3.01.671 4.52 3.614-8.79 7.263-17.7 9.314-27.02.445-2.02.884-4.02 1.38-6.02m812.454-618.932c.22-1.206.96-4.248 1.78-5.011l.03-.155c1.48 1.221.08 11.378-.29 13.268-4.17 13.63-9.19 21.31-19.95 30.97 12.24 12.06 15.29 16.06 18.91 33.36.3 1.41 1.69 9.04.9 10.04l-.28.03c-.78-1.04-1.34-1.91-1.52-3.23-8.15-19.63-19.08-29.73-36.4-40.89 19.79-9.96 28.15-18.41 36.82-38.382"/><path fill="#9a5c21" d="M1219.75 985.038c.22-1.206.96-4.248 1.78-5.011l.03-.155c1.48 1.221.08 11.378-.29 13.268-.21-3.925.57-4.933-1.52-8.102m.48 72.432c.3 1.41 1.69 9.04.9 10.04l-.28.03c-.78-1.04-1.34-1.91-1.52-3.23.22-2.31.57-4.55.9-6.84"/><path fill="#c9a227" d="M1110.92 411.169c-.63 2.275-9.49 32.565-9.27 32.405-6.05.212-8.65-19.216-3.81-26.289 9.89-14.435 22.38-26.309 34.35-39.103-4.22 9.597-14.54 32.381-8.81 40.18 12.42 16.913-5.65 8.124-10.79-1.09.22-1.769 2.33-10.558.65-10.59-1.17.96-1.83 3.087-2.32 4.487m22.46 1260.981c-10.04-12.08-20.98-23.41-31.07-35.44-4.46-5.31-8.24-12.08-7.29-19.21.6-4.48 3.37-10.58 7.18-13.23.45-.31.71-.32 1.22-.21 1.1 1.16.05 6.25.06 7.95.09 8.34 4.14 13.49 6.51 21 .26.82.46 1.67.7 2.49l1.17.16c.11-1.47.16-2.94.59-4.36 1.27-4.18 4.61-8.4 8.56-10.36 1.17-.58 3.17-1.32 4.46-.66.21.11.38.28.46.5.09.28-3.78 13.65-3.9 16.24-.51 11.63 6.24 21.74 10.23 32.16z"/><path fill="#944a1d" d="m1110.69 1635.5 1.17.16c.52 1.3.99 2.45 1.22 3.84.28 1.67 1.36 5.16.65 6.68-.09.18-.13.17-.3.24-.07-.03-.15-.05-.22-.09-1.06-.69-1.29-3.07-1.55-4.15-.58-2.36-.84-4.24-.97-6.68"/><path fill="#a16e2c" d="M377.667 378.688c4.87 4.299 8.74 9.77 13.074 14.592 9.263 10.306 20.614 18.518 23.934 32.732 1.032 4.42.257 8.656-2.214 12.446-.597.915-2.872 4.133-4.048 4.16-.148.004-.23-.056-.342-.153-1.865-1.617-2.18-8.761-2.615-11.18-2.517-8.154-5.249-15.669-8.936-23.374-1.008 5.047-1.104 10.406-4.537 14.564-1.882 2.279-5.385 4.682-8.47 4.692-.572.002-.811-.06-1.215-.448-.324-1.202 1.064-3.233 1.527-4.281 6.511-14.746-.71-30.012-6.158-43.75m706.503-2.887c2.58.999 4.82 2.33 7.27 3.575 11.22 5.691 23.69 2.314 34.88-1.467-7.09 5.128-15.67 13.815-24.24 15.256-.56.093-1.59.15-2.16.407l.18.413c.57.167.83.165 1.41.054 1.13-.215 2.67-.648 3.65.229.33.289.37.655.32 1.057-.39 3.377-8.9 9.779-11.43 11.775-2.34.962-4.62 2.08-7.07 2.713-9.93 2.559-15.58-1.495-23.69-6.329 6.38-.032 10.77.266 16.7-2.655 5.3-2.606 10.69-4.63 16.5-5.81.48-.099.99-.11 1.47-.272.23-.081.4-.293.6-.439l.42.109v-.133c-2.8-1.057-4.73.338-7.55-1.739-4.47-3.296-6.29-11.547-7.26-16.744M350.927 1541.09c9.399-.45 18.127.98 25.296 7.67 5.653 5.27 8.849 12.01 9.088 19.74.219 7.07-2.187 14.49-7.295 19.51-1.386 1.37-5.695 5.17-7.764 4.78-.264-.06-.258-.08-.366-.23.123-.61.727-1.25 1.158-1.67l2.607-2.57c1.054-1.69 1.957-3.4 2.674-5.27 2.518-6.56 2.223-13.55-.644-19.93-3.106-6.91-8.876-12.87-16.07-15.5-6.214-2.28-14.318-2.5-20.313.76-.725.4-1.009.65-1.795.75-.591-.27-.389-.05-.641-.6.059-.12.092-.25.176-.36.165-.19.383-.34.561-.53 3.545-3.7 8.491-5.29 13.328-6.55M1008.86 332.865c.21.229.69.62.79 1.013.13.594-.26 1.2-.56 1.672-1.62 2.52-2.37 5.507-2.79 8.455-1.08 7.6 1.83 14.897 6.52 20.72 8.16 10.119 22.99 16.372 35.63 11.137 1.75-.725 6.31-4.289 7.88-4.117.13.118.2.134.2.323.03.592-.5 1.375-.82 1.84-.51.743-1.13 1.462-1.67 2.186-6.19 3.957-12.62 6.984-20.04 7.577-7.95.635-16.88-2.937-22.65-8.297-5.77-5.351-10.12-14.479-10.35-22.376-.25-8.353 2.31-14.038 7.86-20.133m128.82 122.961c.29.211.64.383.85.676.05.448-5.17 6.948-5.99 9.876-1.99 7.18-.47 15.869 3.37 22.199 13.05 21.505 34.19 9.706 36.41 10.708.15.069.15.119.21.254-.2 1.483-2.95 3.08-3.95 3.847-6.33 3.176-11.51 4.559-18.59 3.767a27.93 27.93 0 0 1-19.47-11.187c-4.89-6.616-5.8-15.057-4.6-22.974 1.14-7.532 5.82-12.833 11.76-17.166m-767.116-1.225c5.316 2.113 8.797 5.822 11.331 10.954 3.188 6.458 3.345 15.179 1.101 21.947a27.15 27.15 0 0 1-13.889 16.007c-7.493 3.734-17.372 3.697-25.114.763l-3.121-1.181c-1.69-1.088-5.065-2.922-6.21-4.628-.233-.348-.322-.772-.483-1.158l.076.687-.203-.423.101-.286c.591-.222.839-.125 1.412.172 3.107 1.613 6.443 3.044 9.931 3.579 7.891 1.211 15.031-.378 21.523-5.141 6.149-4.512 10.004-12.406 10.851-19.893.938-8.285-2.155-15.125-7.306-21.399m130.819-114.195 2.606-.396c1.673 8.155 2.418 14.972-.441 23.594-7.077 21.341-38.896 24.37-50.818 6.428-.249-.375-.405-.949-.214-1.402.494.323.748.453 1.328.868 21.266 15.198 49.03-1.915 47.539-29.092M1132.66 1589.69c-21.99-26.38 2.77-57.57 34.38-45.64l-.02 2.68c-25.32-3.7-43.13 15.82-33.14 39.94zm-631.135 113.53.02-2.54c.091-7.15-4.186-14.67-9.064-19.63-5.872-5.96-14.07-9.59-22.479-9.36-6.15.16-10.669 1.64-15.356 5.67-.636.54-1.577 1.35-2.453 1.4l-.213-.23c.325-2.3 2.727-4.73 4.459-6.08 6.275-4.9 16.672-7.4 24.558-6.1 8.199 1.35 15.205 5.72 19.792 12.69 3.986 6.04 6.488 15.23 4.991 22.45-.485 2.33-1.443 4.54-2.352 6.74q-.135-.195-.274-.39c-1.382-1.91-1.666-2.31-1.629-4.62"/><path fill="#c9a227" d="M975.215 1561.07c-.45-3.12-1.121-6.15-2.351-9.07-6.641-15.76-11.311-4.2-18.953-7.74-1.386-.64-2.491-1.8-2.922-3.27-.71-2.43-.168-5.26.983-7.46 1.191-2.27 3.534-4.58 6.049-5.29 3.029-.86 6.971 1.4 9.372 2.96 8.895 5.8 8.793 14.26 10.566 23.75-.599 2.28-1.263 4.19-2.343 6.28zm73.905-1107.06c.31-.006.75-.027 1.05.02.31.049.27.05.41.226.03.195.05.196-.02.393-1.55 4.169-20.35 18.428-24.97 20.622-5.21 2.475-8.85 1.673-14.07-.157-1.83-2.061-3.55-4.045-4.77-6.55-.3-.616-.46-1.157-.22-1.803 1.26-1.053 8.76-.631 11.02-1.233 10.47-2.791 21.65-7.168 31.57-11.518"/><path fill="#a16e2c" d="M975.042 488.535c.36-1.266 1.024-5.454 1.585-6.045.586.308.974.687 1.504 1.15-.501 11.892-.375 25.347-9.968 33.903-6.603 5.889-18.797 1.724-16.412-8.094 2.25-9.259 11.945-.688 17.162-6.492 3.815-4.244 5.732-8.972 6.129-14.422m-444.21-4.957c2.688 5.667 2.774 11.809 6.748 17.06 6.929 9.155 10.303 2.063 17.46 3.511 1.13.229 2.055.909 2.682 1.868 1.898 2.905.295 6.874-.499 9.857-.798.963-1.582 2.035-2.537 2.848-1.829 1.555-3.929 1.454-6.208 1.347-4.217-.196-6.851-2.402-9.568-5.522-7.383-8.479-8.9-20.196-8.078-30.969"/><path fill="#c9a227" d="M544.594 1527.9c2.419-.18 5.069-.52 7.405.34 2.039.75 4.159 2.16 5 4.24 1.193 2.97 1.239 7.06-.264 9.93-1.738 3.33-9.983.2-13.729 1.61-4.76 1.8-6.731 6.57-8.687 10.87-.382 3.39-1.111 6.75-1.441 10.12-.167 1.71-.386 3.08-.89 4.71-.064-5.33-.477-10.92.171-16.22.985-8.04 3.23-19.01 10.183-24.02.744-.54 1.506-1.05 2.252-1.58"/><path fill="#a16e2c" d="M458.572 453.534c1.055.031 1.448-.036 2.372.244 14.219 5.1 26.017 12.769 41.546 12.294.292-.009.329.203.47.43.016 1.558-2.601 4.198-3.54 5.269-12.573 14.33-31.378-8.955-40.848-18.237"/><path fill="#c9a227" d="M485.331 1572.11c2.286-.14 4.912-.54 7.172-.04 3.425.77 7.252 4.67 8.854 7.64.267.49.547 1.15.225 1.69-.461.77-5.14.52-6.115.61-8.362.8-17.497 5.12-25.366 7.94l-14.608 6.03c9.458-9.43 17.803-17.75 29.838-23.87"/><path fill="#a16e2c" d="M1061.78 1646.02c6.81-4.39 14.07-9.64 22.65-7.67 9.72 2.24 15.79 8.43 22.22 15.49-1.55.61-2 .7-3.64.47-1.62-.24-3.23-.47-4.87-.68-1.07-.13-2.01-.21-3.1-.24-8.39-1.61-16.44-5.94-24.55-7.18-2.84-.43-5.82-.04-8.71-.19"/><path fill="#c9a227" d="M1014.89 1571.83c1.91.15 3.93.18 5.78.71 5.19 1.49 28.08 16.74 30.37 20.84l-.26.33.31-.26c-2.31.51-4.61-.99-6.75-1.86-7.53-1.56-29.19-10.76-34.81-9.29-.67.18-1.34.41-2.04.48-.32.03-.85.06-1.1-.22-.12-.14-.13-.38-.13-.54.03-3.29 6.21-8.15 8.63-10.19m-520.436-59.62c22.417-11.36 4.043-22.35 14.407-26.56 9.678-3.94 25.422 16.63-7.781 27.48-2.238-.35-4.367-.68-6.626-.92m521.256-978.041c.26.102.53.19.78.306.12.052.11.122.14.224-.35.56-.55.727-1.14 1.057-3.33 1.869-6.34 3.983-9.14 6.617-5.4 5.096-2.01 8.533-2.37 14.637-.13 2.134-1.17 3.88-2.81 5.238-2.577 2.136-5.286 1.803-8.365 1.366-1.803-1.771-4.096-3.53-4.711-6.113-.669-2.811.117-5.732 1.614-8.125 5.577-8.924 16.262-12.879 26.002-15.207"/><path fill="#a16e2c" d="M1009.69 1512.62c-8.23-3.04-26.318-8.83-20.801-23.63 2.076-5.57 12.831-4.14 13.981-1.46 4.71 10.9-5.712 11.32 7.65 21.99zM500.711 535.339c8.709 2.536 13.808 4.087 18.54 12.663 2.51 4.551 3.463 11.696-2.242 13.822-10.27 3.828-12.763-3.703-11.001-12.331.984-4.815-4.16-9.52-7.728-12.332.888-.712 1.485-1.191 2.431-1.822"/><path fill="#c9a227" d="M403.02 1654.6c2.065-2.68 4.141-5.27 6.426-7.77 4.114-4.5 9.65-9.06 16.046-9.18 5.569-.11 13.578 1.75 17.574 5.88.354.37.543.66.525 1.16-.938 1.37-4.648 1.12-6.092 1.23-8.477.66-16.984 5.09-25.149 7.47-3.098.5-6.219.8-9.33 1.21m-.626-1261.135c1.769.024 7.737.764 9.878.991 12.039 3.244 20.32 6.435 31.801 10.268-6.008 3.361-7.676 3.825-14.165 5.657-13.76-2.937-18.886-5.131-27.514-16.916"/><path fill="#a16e2c" d="M386.294 379.505c11.016 2.322 23.615 5.082 33.639-1.734.963-.655 3.484-2.574 4.385-2.882 4.066 2.081-2.288 16.022-11.435 18.26-4.397-1.027-7.607-1.24-11.952-2.433-3.211-1.992-10.755-8.334-14.637-11.211M1090.95 1656.12c6.15-.28 12.41-.68 18.42.77 5.77 4.62 11.66 9.03 17.37 13.74-17.21-6.08-25.69-6.59-42.58.56 1.7-5.66 2.37-10.82 6.79-15.07m-678.078-.5c3.003.99 8.286 1.86 9.799 4.97 1.346 2.78 1.622 7.78 2.25 10.94-.379-.21-.763-.41-1.138-.63-.458-.27-.886-.58-1.339-.86-7.864-4.76-20.22-4.95-28.927-2.8-2.971.73-5.899 1.76-8.832 2.63 5.765-4.54 11.138-9.3 17.804-12.51.446-.22.883-.45 1.325-.67 3.02-.61 6.021-.65 9.058-1.07"/><path fill="#c9a227" d="M754.517 228.235c1.544 4.528 2.038 9.266 3.746 13.759 3.088 8.121 8.724 14.757 13.127 22.153-6.908-5.103-11.597-9.272-16.405-16.45-1.273.195-1.617.755-2.422 1.772-4.697 5.936-8.994 9.582-15.225 13.825 7.67-11.639 12.217-22.158 17.179-35.059"/><path fill="#944a1d" d="M503.428 1708.23c-1.64 2.15-3.049 4.58-5.046 6.44-1.09 1.02-2.361 1.86-3.886 1.78 1.586-4.18 4.999-5.91 6.259-11 .242-.97.328-1.3.77-2.23-.037 2.31.247 2.71 1.629 4.62q.139.195.274.39"/><path fill="#9a5c21" d="M599.883 307.329c6.511-2.804 13.461-5.272 20.117-7.758l.192 2.996c-6.312 2.209-13.728 3.53-20.309 4.762"/><path fill="#a16e2c" d="M977.959 1554.95c.042 4.54.056 8.72-.817 13.2-.119.43-.222.86-.358 1.28-.079.24-.298.6-.573.67-.204.05-.314-.01-.465-.15-1.337-1.24-.612-7.26-.531-8.88l.401.16c1.08-2.09 1.744-4 2.343-6.28"/><path fill="#944a1d" d="m975.215 1561.07.401.16a61 61 0 0 0 1.526 6.92c-.119.43-.222.86-.358 1.28-.079.24-.298.6-.573.67-.204.05-.314-.01-.465-.15-1.337-1.24-.612-7.26-.531-8.88"/><path fill="#9a5c21" d="M687.052 182.552c.729.07 9.942 1.82 10.091 1.903l.068.153c-1.327 2.329-11.964.286-14.076-.158a336 336 0 0 1 3.917-1.898"/><path fill="#944a1d" d="M463.83 277.517c4.647-1.938 9.104-4.092 13.807-6.109l2.398 2.342c-2.87 1.009-12.172 3.747-15.044 3.735z"/><path fill="#9a5c21" d="m821.031 183.114 4.461 1.717c-2.057.216-13.964 2.829-14.042-.413.322-.183 8.32-1.097 9.581-1.304M501.383 340.406c-.362-.857-4.619-10.122-4.6-9.757l.292-.184c2.684.489 5.985 7.087 6.914 9.545z"/><path fill="#944a1d" d="M1010.52 1509.52c9.34 4.26 10.48 5.25-.83 3.1z"/><path fill="#9a5c21" d="M1027.08 305.714c-1.44-.565-3.26-.935-4.28-2.174.43-1.393 7.38-.517 8.47-.433-1.71.912-2.61 1.504-4.19 2.607m-528.8 231.447c-1.218-.444-4.066-1.353-4.697-2.636.958-1.239 5.829.399 7.128.814-.946.631-1.543 1.11-2.431 1.822"/><path fill="#944a1d" d="M896.094 302.89c11.965 4.648 4.897 3.517-2.387 1.465z"/><path fill="#9a5c21" d="M1167.04 1544.05c2.97 1.72 4.74 2.82 6.8 5.68l-.59.13.13.07.09.15c-1.01-.2-5.23-2.74-6.45-3.35zm-33.16 42.62c.75 1.14 3.83 4.84 3.64 6.12-.03.2-.09.17-.27.27-1.84-.49-3.44-1.9-4.59-3.37zm-632.8-73.54c-1.611.36-8.393 1.82-9.714.68l.005-.29c.829-.8 1.972-1.03 3.083-1.31 2.259.24 4.388.57 6.626.92M931.224 317.698c1.529-.564 2.098-.796 3.752-.692.38.369.263.191.406.525-.25.969-2.409 2.582-3.201 3.386l-1.547.147q.269-1.688.59-3.366"/><path fill="#a16e2c" d="m832.669 232.821 2.091-.346c-.222.883-1.439 6.713-2.958 5.931-.551-1.195.517-4.387.867-5.585"/><path fill="#9a5c21" d="M1289.4 1723.76c-.21-1.34-1.23-5.94-.22-7.15.12-.14.15-.1.32-.08 1.17 1.03 1.28 3.52 1.48 4.97zM1178.07 212.278l-.24 3.702c-.86-.181-3.65-.463-4.03-1.38.33-.798 3.55-1.981 4.27-2.322"/><path fill="#944a1d" d="M333.83 213.306c5.152 1.062 5.68 3.112.358 2.336z"/></svg>