<svg width="512" height="512" viewBox="0 0 512 512" xmlns="http://www.w3.org/2000/svg">
  <rect width="512" height="512" rx="80" fill="#0d1b2a"/>
  <g transform="translate(101, 56) scale(8.6)">
    <defs><clipPath id="sc"><path d="M18 1.5 L33.5 7 L33.5 23 Q33.5 33 18 38.5 Q2.5 33 2.5 23 L2.5 7 Z"/></clipPath></defs>
    <path d="M18 1.5 L33.5 7 L33.5 23 Q33.5 33 18 38.5 Q2.5 33 2.5 23 L2.5 7 Z" fill="#1565c0"/>
    <rect x="0" y="26" width="36" height="14" clip-path="url(#sc)" fill="#071524"/>
    <rect x="3" y="19" width="5" height="8" clip-path="url(#sc)" fill="#071524"/>
    <rect x="9" y="14" width="5" height="13" clip-path="url(#sc)" fill="#071524"/>
    <rect x="15" y="17" width="4" height="10" clip-path="url(#sc)" fill="#071524"/>
    <rect x="23" y="19" width="6" height="8" clip-path="url(#sc)" fill="#071524"/>
    <rect x="20" y="10" width="2" height="17" clip-path="url(#sc)" fill="#071524"/>
    <rect x="14.5" y="10" width="12" height="1.5" clip-path="url(#sc)" fill="#071524"/>
    <line x1="26" y1="11.5" x2="26" y2="16" clip-path="url(#sc)" stroke="#071524" stroke-width="1"/>
    <rect x="4.5" y="21" width="1.5" height="1.5" clip-path="url(#sc)" fill="#ffd54f" opacity="0.85"/>
    <rect x="6.5" y="21" width="1.5" height="1.5" clip-path="url(#sc)" fill="#ffd54f" opacity="0.6"/>
    <rect x="10" y="16" width="1.5" height="1.5" clip-path="url(#sc)" fill="#ffd54f" opacity="0.85"/>
    <rect x="12" y="19" width="1.5" height="1.5" clip-path="url(#sc)" fill="#ffd54f" opacity="0.6"/>
    <line x1="2.5" y1="26" x2="33.5" y2="26" clip-path="url(#sc)" stroke="#90caf9" stroke-width="0.8"/>
    <path d="M18 1.5 L33.5 7 L33.5 23 Q33.5 33 18 38.5 Q2.5 33 2.5 23 L2.5 7 Z" fill="none" stroke="#4fc3f7" stroke-width="1.5"/>
  </g>
</svg>
